<svg width="574" height="755" viewBox="0 0 574 755" xmlns="http://www.w3.org/2000/svg" xmlns:xlink="http://www.w3.org/1999/xlink"><title>Logo</title><desc>Created using Figma</desc><g opacity=".5"><g transform="translate(-2407 -2685)"><mask id="b"><use xlink:href="#a" transform="translate(2836.89 2685)" fill="#FFF"/></mask><g mask="url(#b)"><use xlink:href="#a" transform="translate(2836.89 2685)" fill="url(#c)"/></g><g opacity=".171" mask="url(#b)" filter="url(#d)"><use xlink:href="#e" transform="rotate(-90 3046.605 363.735)" fill="#0B79E6"/></g></g><g transform="translate(-2407 -2685)"><mask id="g"><use xlink:href="#f" transform="translate(2413.77 2972.42)" fill="#FFF"/></mask><g mask="url(#g)"><use xlink:href="#f" transform="translate(2413.77 2972.42)" fill="url(#h)"/></g><g opacity=".171" mask="url(#g)" filter="url(#i)"><use xlink:href="#j" transform="rotate(-90 2754.85 341.8)" fill="#0B79E6"/></g></g><use xlink:href="#k" transform="rotate(-90 515.23 239.38)" fill="url(#l)"/><use xlink:href="#m" transform="rotate(-90 208.8 202.75)" fill="url(#n)"/></g><defs><filter id="d" filterUnits="userSpaceOnUse" x="2836" y="3122" width="139" height="141" color-interpolation-filters="sRGB"><feFlood flood-opacity="0" result="BackgroundImageFix"/><feBlend in="SourceGraphic" in2="BackgroundImageFix" result="shape"/><feGaussianBlur stdDeviation="2.718" result="effect1_foregroundBlur"/></filter><filter id="i" filterUnits="userSpaceOnUse" x="2413" y="2972" width="271" height="131" color-interpolation-filters="sRGB"><feFlood flood-opacity="0" result="BackgroundImageFix"/><feBlend in="SourceGraphic" in2="BackgroundImageFix" result="shape"/><feGaussianBlur stdDeviation="2.718" result="effect1_foregroundBlur"/></filter><linearGradient id="c" x2="1" gradientUnits="userSpaceOnUse" gradientTransform="matrix(-179.855 -643.672 153.045 -756.428 179.855 643.672)"><stop offset="0" stop-color="#006DE1"/><stop offset="1" stop-color="#149DFF"/></linearGradient><linearGradient id="h" x2="1" gradientUnits="userSpaceOnUse" gradientTransform="matrix(147.529 333.551 -235.29 209.14 -12.59 -86.78)"><stop offset="0" stop-color="#006DE1"/><stop offset="1" stop-color="#149DFF"/></linearGradient><linearGradient id="l" x2="1" gradientUnits="userSpaceOnUse" gradientTransform="scale(-439.42 -412.977) rotate(45 .5 -1.207)"><stop offset="0" stop-color="#006DE1"/><stop offset="1" stop-color="#0D7BF0"/></linearGradient><linearGradient id="n" x2="1" gradientUnits="userSpaceOnUse" gradientTransform="matrix(420.87 460.16 -540.545 358.283 -102.149 -188.836)"><stop offset="0" stop-color="#006DE1"/><stop offset="1" stop-color="#149DFF"/></linearGradient><path id="a" fill-rule="evenodd" d="M0 0l137.226 86.226v490.913L0 525.404V0z"/><path id="e" fill-rule="evenodd" d="M0 0h144.902l137.079 292.019H138.904L0 0z"/><path id="f" fill-rule="evenodd" d="M116.121 230.223l.521-178.487L0 0v282.956l164.028 99.627 105.849-60.673-153.756-91.687z"/><path id="j" fill-rule="evenodd" d="M0 0h152.907l137.079 271.324H138.904L0 0z"/><path id="k" fill-rule="evenodd" d="M0 0h144.902l165.815 292.019H167.639L0 0z"/><path id="m" fill-rule="evenodd" d="M0 0h152.907l165.814 271.324H167.639L0 0z"/></defs></svg>