<svg width="602" height="602" viewBox="0 0 602 602" xmlns="http://www.w3.org/2000/svg" xmlns:xlink="http://www.w3.org/1999/xlink"><title>Component</title><desc>Created using Figma</desc><g opacity=".2" transform="translate(-2032 -797)"><mask id="b"><path fill="#fff" transform="translate(2156 923)" d="M-1-1h354v354H-1z"/><use xlink:href="#a" transform="translate(2156 923)"/></mask><g mask="url(#b)"><use xlink:href="#c" transform="translate(2156 923)" fill="#497798"/></g></g><g opacity=".1" transform="translate(-2032 -797)"><mask id="e"><path fill="#fff" transform="translate(2098 865)" d="M-1-1h470v470H-1z"/><use xlink:href="#d" transform="translate(2098 865)"/></mask><g mask="url(#e)"><use xlink:href="#f" transform="translate(2098 865)" fill="#444F5E"/></g></g><g opacity=".8" transform="translate(-2032 -797)"><mask id="h"><path fill="#fff" transform="translate(2033 798)" d="M-1-1h602v602H-1z"/><use xlink:href="#g" transform="translate(2033 798)"/></mask><g mask="url(#h)"><use xlink:href="#i" transform="translate(2033 798)" fill="#E7EBF2"/></g></g><defs><path id="a" fill-rule="evenodd" d="M176 352c97.202 0 176-78.798 176-176S273.202 0 176 0 0 78.798 0 176s78.798 176 176 176z"/><path id="c" d="M176 353c97.754 0 177-79.246 177-177h-2c0 96.65-78.35 175-175 175v2zm177-177C353 78.246 273.754-1 176-1v2c96.65 0 175 78.35 175 175h2zM176-1C78.246-1-1 78.246-1 176h2C1 79.35 79.35 1 176 1v-2zM-1 176c0 97.754 79.246 177 177 177v-2C79.35 351 1 272.65 1 176h-2z"/><path id="d" fill-rule="evenodd" d="M234 468c129.235 0 234-104.765 234-234S363.235 0 234 0 0 104.765 0 234s104.765 234 234 234z"/><path id="f" d="M234 469c129.787 0 235-105.213 235-235h-2c0 128.682-104.318 233-233 233v2zm235-235C469 104.213 363.787-1 234-1v2c128.682 0 233 104.318 233 233h2zM234-1C104.213-1-1 104.213-1 234h2C1 105.318 105.318 1 234 1v-2zM-1 234c0 129.787 105.213 235 235 235v-2C105.318 467 1 362.682 1 234h-2z"/><path id="g" fill-rule="evenodd" d="M300 600c165.685 0 300-134.315 300-300S465.685 0 300 0 0 134.315 0 300s134.315 300 300 300z"/><path id="i" d="M300 601c166.238 0 301-134.762 301-301h-2c0 165.133-133.867 299-299 299v2zm301-301C601 133.762 466.238-1 300-1v2c165.133 0 299 133.867 299 299h2zM300-1C133.762-1-1 133.762-1 300h2C1 134.867 134.867 1 300 1v-2zM-1 300c0 166.238 134.762 301 301 301v-2C134.867 599 1 465.133 1 300h-2z"/></defs></svg>