<svg width="536" height="537" viewBox="0 0 536 537" xmlns="http://www.w3.org/2000/svg" xmlns:xlink="http://www.w3.org/1999/xlink"><title>Oval 3 + Oval 3 + Oval 3 + Oval 3 Mask</title><desc>Created using Figma</desc><g opacity=".2" transform="translate(132 460)"><mask id="b"><path fill="#fff" transform="translate(4.325 -320)" d="M-1-1h263v263H-1z"/><use xlink:href="#a" transform="translate(4.325 -320)"/></mask><g mask="url(#b)"><use xlink:href="#c" transform="translate(4.325 -320)" fill="#497798"/></g></g><g opacity=".1" transform="translate(132 460)"><mask id="e"><path fill="#fff" transform="translate(-65.675 -390)" d="M-1-1h403v403H-1z"/><use xlink:href="#d" transform="translate(-65.675 -390)"/></mask><g mask="url(#e)"><use xlink:href="#f" transform="translate(-65.675 -390)" fill="#444F5E"/></g></g><g opacity=".8" transform="translate(132 460)"><mask id="h"><path fill="#fff" transform="translate(-131 -458.325)" d="M-1-1h536v536H-1z"/><use xlink:href="#g" transform="translate(-131 -458.325)"/></mask><g mask="url(#h)"><use xlink:href="#i" transform="translate(-131 -458.325)" fill="#E7EBF2"/></g></g><defs><path id="a" fill-rule="evenodd" d="M130.018 260.037c71.808 0 130.019-58.211 130.019-130.019C260.037 58.211 201.826 0 130.018 0 58.211 0 0 58.211 0 130.018c0 71.808 58.211 130.019 130.018 130.019z"/><path id="c" d="M130.018 261.037c72.36 0 131.019-58.659 131.019-131.019h-2c0 71.255-57.764 129.019-129.019 129.019v2zm131.019-131.019C261.037 57.659 202.378-1 130.018-1v2c71.255 0 129.019 57.764 129.019 129.018h2zM130.018-1C57.659-1-1 57.659-1 130.018h2C1 58.763 58.764 1 130.018 1v-2zM-1 130.018c0 72.36 58.659 131.019 131.018 131.019v-2C58.763 259.037 1 201.273 1 130.018h-2z"/><path id="d" fill-rule="evenodd" d="M200.093 400.185c110.508 0 200.092-89.584 200.092-200.092C400.185 89.585 310.601 0 200.093 0 89.585 0 0 89.585 0 200.093s89.585 200.092 200.093 200.092z"/><path id="f" d="M200.093 401.185c111.06 0 201.092-90.032 201.092-201.092h-2c0 109.956-89.136 199.092-199.092 199.092v2zm201.092-201.092C401.185 89.033 311.153-1 200.093-1v2c109.956 0 199.092 89.137 199.092 199.093h2zM200.093-1C89.033-1-1 89.032-1 200.093h2C1 90.137 90.137 1 200.093 1v-2zM-1 200.093c0 111.06 90.032 201.092 201.093 201.092v-2C90.137 399.185 1 310.049 1 200.093h-2z"/><path id="g" fill-rule="evenodd" d="M266.675 533.35c147.28 0 266.675-119.395 266.675-266.675C533.35 119.394 413.955 0 266.675 0 119.394 0 0 119.394 0 266.675 0 413.955 119.394 533.35 266.675 533.35z"/><path id="i" d="M266.675 534.35c147.833 0 267.675-119.842 267.675-267.675h-2c0 146.728-118.947 265.675-265.675 265.675v2zM534.35 266.675C534.35 118.842 414.508-1 266.675-1v2C413.403 1 532.35 119.947 532.35 266.675h2zM266.675-1C118.842-1-1 118.842-1 266.675h2C1 119.947 119.947 1 266.675 1v-2zM-1 266.675C-1 414.508 118.842 534.35 266.675 534.35v-2C119.947 532.35 1 413.403 1 266.675h-2z"/></defs></svg>