<svg width="312" height="312" viewBox="0 0 312 312" xmlns="http://www.w3.org/2000/svg" xmlns:xlink="http://www.w3.org/1999/xlink"><title>Oval 3</title><desc>Created using Figma</desc><g filter="url(#a)" transform="translate(-2176 -860)"><use xlink:href="#b" transform="translate(2180 864)" fill="#FFF"/><mask id="c"><use xlink:href="#b" fill="#fff" transform="translate(2180 864)"/></mask><g mask="url(#c)"><use xlink:href="#d" transform="translate(2180 864)" fill="url(#e)"/></g></g><defs><filter id="a" filterUnits="userSpaceOnUse" x="2176" y="860" width="312" height="312" color-interpolation-filters="sRGB"><feFlood flood-opacity="0" result="BackgroundImageFix"/><feColorMatrix in="SourceAlpha" values="0 0 0 0 0 0 0 0 0 0 0 0 0 0 0 0 0 0 255 0"/><feOffset/><feGaussianBlur stdDeviation="2"/><feColorMatrix values="0 0 0 0 0 0 0 0 0 0 0 0 0 0 0 0 0 0 0.107762 0"/><feBlend in2="BackgroundImageFix" result="effect1_dropShadow"/><feBlend in="SourceGraphic" in2="effect1_dropShadow" result="shape"/></filter><linearGradient id="e" x2="1" gradientUnits="userSpaceOnUse" gradientTransform="matrix(0 287.436 -287.436 0 152 5.935)"><stop offset="0" stop-color="#036DDD"/><stop offset="1" stop-color="#F488FF"/></linearGradient><path id="b" fill-rule="evenodd" d="M152 304c83.947 0 152-68.053 152-152S235.947 0 152 0 0 68.053 0 152s68.053 152 152 152z"/><path id="d" d="M152 314c89.47 0 162-72.53 162-162h-20c0 78.424-63.576 142-142 142v20zm162-162c0-89.47-72.53-162-162-162v20c78.424 0 142 63.576 142 142h20zM152-10C62.53-10-10 62.53-10 152h20C10 73.576 73.576 10 152 10v-20zM-10 152c0 89.47 72.53 162 162 162v-20c-78.424 0-142-63.576-142-142h-20z"/></defs></svg>