<svg width="30" height="33" viewBox="0 0 30 33" xmlns="http://www.w3.org/2000/svg" xmlns:xlink="http://www.w3.org/1999/xlink"><title>logo_color</title><desc>Created using Figma</desc><g transform="translate(-37 2093)"><mask id="b"><use xlink:href="#a" transform="translate(57.663 -2093)" fill="#FFF"/></mask><g mask="url(#b)"><use xlink:href="#a" transform="translate(57.663 -2093)" fill="url(#c)"/></g><g mask="url(#b)" filter="url(#d)"><use xlink:href="#e" transform="rotate(-90 -1006.074 -1057.486)" fill="#002A70"/></g></g><g transform="translate(-37 2093)"><mask id="g"><use xlink:href="#f" transform="translate(40.466 -2081.34)" fill="#FFF"/></mask><g mask="url(#g)"><use xlink:href="#f" transform="translate(40.466 -2081.34)" fill="url(#h)"/></g><g mask="url(#g)" filter="url(#i)"><use xlink:href="#j" transform="rotate(-90 -1017.922 -1058.368)" fill="#003A9C"/></g></g><use xlink:href="#k" transform="rotate(-90 22.52 8.11)" fill="url(#l)"/><use xlink:href="#m" transform="rotate(-90 10.078 6.632)" fill="url(#n)"/><defs><filter id="d" filterUnits="userSpaceOnUse" x="57" y="-2078" width="7" height="9" color-interpolation-filters="sRGB"><feFlood flood-opacity="0" result="BackgroundImageFix"/><feBlend in="SourceGraphic" in2="BackgroundImageFix" result="shape"/><feGaussianBlur stdDeviation="1.417" result="effect1_foregroundBlur"/></filter><filter id="i" filterUnits="userSpaceOnUse" x="40" y="-2082" width="12" height="9" color-interpolation-filters="sRGB"><feFlood flood-opacity="0" result="BackgroundImageFix"/><feBlend in="SourceGraphic" in2="BackgroundImageFix" result="shape"/><feGaussianBlur stdDeviation="1.417" result="effect1_foregroundBlur"/></filter><linearGradient id="c" x2="1" gradientUnits="userSpaceOnUse" gradientTransform="matrix(0 -23.4204 5.5772 0 2.789 23.42)"><stop offset="0" stop-color="#0043C0"/><stop offset="1" stop-color="#007BFF"/></linearGradient><linearGradient id="h" x2="1" gradientUnits="userSpaceOnUse" gradientTransform="matrix(0 -15.5253 10.9685 0 5.484 15.525)"><stop offset="0" stop-color="#0043C0"/><stop offset="1" stop-color="#007BFF"/></linearGradient><linearGradient id="l" x2="1" gradientUnits="userSpaceOnUse" gradientTransform="scale(17.8591 16.7587) rotate(45)"><stop offset="0" stop-color="#21B7FF"/><stop offset="1" stop-color="#00D4FF"/></linearGradient><linearGradient id="n" x2="1" gradientUnits="userSpaceOnUse" gradientTransform="matrix(-6.60621 -11.0104 12.9536 -5.61517 6.606 11.01)"><stop offset="0" stop-color="#21B7FF"/><stop offset="1" stop-color="#00D4FF"/></linearGradient><path id="a" fill-rule="evenodd" d="M0 0l5.577 3.5v19.92L0 21.321V0z"/><path id="e" fill-rule="evenodd" d="M0 0h5.89l5.57 11.85H5.645L0 0z"/><path id="f" fill-rule="evenodd" d="M4.72 9.342L4.74 2.1 0 0v11.482l6.666 4.043 4.303-2.462-6.25-3.72z"/><path id="j" fill-rule="evenodd" d="M0 0h6.215l5.57 11.01h-6.14L0 0z"/><path id="k" fill-rule="evenodd" d="M0 0h5.89l6.738 11.85H6.813L0 0z"/><path id="m" fill-rule="evenodd" d="M0 0h6.215l6.739 11.01h-6.14L0 0z"/></defs></svg>