<svg width="117" height="51" viewBox="0 0 117 51" xmlns="http://www.w3.org/2000/svg" xmlns:xlink="http://www.w3.org/1999/xlink"><title>logo_color</title><desc>Created using Figma</desc><g transform="translate(-5177 842)"><mask id="b"><use xlink:href="#a" transform="translate(5208.7 -842)" fill="#FFF"/></mask><g mask="url(#b)"><use xlink:href="#a" transform="translate(5208.7 -842)" fill="url(#c)"/></g><g mask="url(#b)" filter="url(#d)"><use xlink:href="#e" transform="rotate(-90 2202.193 -2996.348)" fill="#002A70"/></g></g><g transform="translate(-5177 842)"><mask id="g"><use xlink:href="#f" transform="translate(5180.76 -823.047)" fill="#FFF"/></mask><g mask="url(#g)"><use xlink:href="#f" transform="translate(5180.76 -823.047)" fill="url(#h)"/></g><g mask="url(#g)" filter="url(#i)"><use xlink:href="#j" transform="rotate(-90 2182.94 -2997.78)" fill="#003A9C"/></g></g><use xlink:href="#k" transform="rotate(-90 35.659 14.119)" fill="url(#l)"/><use xlink:href="#m" transform="rotate(-90 15.438 11.717)" fill="url(#n)"/><use xlink:href="#o" transform="translate(54.88 9.724)" fill="#003FA2"/><use xlink:href="#p" transform="translate(54.88 23.249)" fill="#00296B"/><defs><filter id="d" filterUnits="userSpaceOnUse" x="5208" y="-816" width="10" height="13" color-interpolation-filters="sRGB"><feFlood flood-opacity="0" result="BackgroundImageFix"/><feBlend in="SourceGraphic" in2="BackgroundImageFix" result="shape"/><feGaussianBlur stdDeviation="1.417" result="effect1_foregroundBlur"/></filter><filter id="i" filterUnits="userSpaceOnUse" x="5180" y="-824" width="19" height="12" color-interpolation-filters="sRGB"><feFlood flood-opacity="0" result="BackgroundImageFix"/><feBlend in="SourceGraphic" in2="BackgroundImageFix" result="shape"/><feGaussianBlur stdDeviation="1.417" result="effect1_foregroundBlur"/></filter><linearGradient id="c" x2="1" gradientUnits="userSpaceOnUse" gradientTransform="matrix(0 -38.0581 9.06295 0 4.531 38.058)"><stop offset="0" stop-color="#0043C0"/><stop offset="1" stop-color="#007BFF"/></linearGradient><linearGradient id="h" x2="1" gradientUnits="userSpaceOnUse" gradientTransform="matrix(0 -25.2286 17.8238 0 8.912 25.229)"><stop offset="0" stop-color="#0043C0"/><stop offset="1" stop-color="#007BFF"/></linearGradient><linearGradient id="l" x2="1" gradientUnits="userSpaceOnUse" gradientTransform="matrix(20.52095 19.2565 -20.52095 19.2565 0 0)"><stop offset="0" stop-color="#21B7FF"/><stop offset="1" stop-color="#00D4FF"/></linearGradient><linearGradient id="n" x2="1" gradientUnits="userSpaceOnUse" gradientTransform="matrix(-10.7351 -17.8919 21.0497 -9.12465 10.735 17.892)"><stop offset="0" stop-color="#21B7FF"/><stop offset="1" stop-color="#00D4FF"/></linearGradient><path id="a" fill-rule="evenodd" d="M0 0l9.063 5.686v32.372L0 34.647V0z"/><path id="e" fill-rule="evenodd" d="M0 0h9.57l9.053 19.256h-9.45L0 0z"/><path id="f" fill-rule="evenodd" d="M7.67 15.182l.034-11.77L0 0v18.659l10.833 6.57 6.99-4.001L7.67 15.182z"/><path id="j" fill-rule="evenodd" d="M0 0h10.099l9.053 17.892H9.174L0 0z"/><path id="k" fill-rule="evenodd" d="M0 0h9.57l10.95 19.256h-9.45L0 0z"/><path id="m" fill-rule="evenodd" d="M0 0h10.099l10.95 17.892h-9.977L0 0z"/><path id="o" fill-rule="evenodd" d="M0 8.754V.148h.171C.624.148 2.14.11 2.702.11c3.424 0 4.806 1.98 4.806 4.266 0 2.41-1.639 4.402-4.904 4.402-.452 0-1.577-.025-2.396-.025H0zm2.678-6.799c-.208 0-.477 0-.721.037V6.91c.256.025.427.025.709.025 1.687 0 2.763-.922 2.763-2.558 0-1.586-1.162-2.422-2.751-2.422zm6.541 6.8h1.957V.147H9.219v8.606zm7.801-3.062h1.822v.934c-.195.185-.831.43-1.345.43-1.528 0-2.53-1.02-2.53-2.606 0-1.77 1.088-2.607 2.494-2.607.66 0 1.406.27 1.748.64l.82-1.586C19.33.344 18.5 0 17.228 0c-2.69 0-4.341 1.98-4.341 4.451 0 2.68 1.65 4.451 4.585 4.451 1.064 0 2.445-.455 3.203-1.217V3.849H17.02v1.844zm5.49 3.061h1.957V.148H22.51v8.606zm3.301-6.762V.148h7.092v1.844h-2.567v6.762h-1.957V1.992h-2.568zm6.555 6.762L35.924.148h1.748l3.559 8.606H39.14l-.71-1.807h-3.386l-.71 1.807h-1.968zm4.377-6.086l-.966 2.435h1.92l-.954-2.435zm5.588 6.086h5.44V6.91h-3.484V.148H42.33v8.606z"/><path id="p" fill-rule="evenodd" d="M0 17.304h3.933V6.353l4.77 6.674h.565L14.06 6.28v11.025h3.933V0h-3.712L9.268 7.292 3.958 0H0v17.304zm22.665 0h3.933V0h-3.933v17.304zm23.599 0V0h-3.688v10.432L34.416 0h-3.147v17.304h3.687V6.92l8.161 10.383h3.147zm4.424 0h10.448v-3.708h-6.514v-3.14h5.53V6.748h-5.53v-3.04h6.268V0H50.688v17.304z"/></defs></svg>