<svg xmlns="http://www.w3.org/2000/svg" width="91" height="40" viewBox="0 0 91 40"><path fill="#fff" d="M23.32 0l7.21 4.55v17.41l-7.21 2.73zM9.69 35.35l-8.63-5.26v-7.05l6.13-2.72-.02 6.99 8.08 4.83 15.35-8.7v7.53l-15.41 8.82v-7.62zM1 21.69v-8.05l14.31-8.72v7.95zm40.77-6.91V7.9h.14l2.02-.03c2.72 0 3.82 1.58 3.82 3.41 0 1.93-1.3 3.52-3.9 3.52l-1.91-.02zm2.14-5.44c-.17 0-.38 0-.58.03v3.94c.21.02.34.02.57.02 1.34 0 2.2-.74 2.2-2.05 0-1.27-.93-1.94-2.19-1.94zm5.21-1.44h1.56v6.88h-1.56zm6.21 2.96h2.91v3.07c-.6.61-1.7.97-2.55.97-2.34 0-3.65-1.42-3.65-3.56 0-1.98 1.31-3.56 3.46-3.56 1.01 0 1.67.27 2.23.72l-.66 1.27c-.27-.3-.86-.52-1.39-.52-1.12 0-1.99.67-1.99 2.09 0 1.27.8 2.09 2.02 2.09.41 0 .92-.2 1.07-.35v-.75h-1.45zM59.7 7.9h1.56v6.88H59.7zm2.63 1.47V7.9h5.65v1.47h-2.04v5.41h-1.56V9.37zm5.22 5.41l2.84-6.88h1.39l2.83 6.88h-1.66l-.57-1.44h-2.69l-.57 1.44zm3.49-4.87l-.77 1.95h1.53zm4.45-2.01h1.56v5.41h2.77v1.47h-4.33zM41.77 18.6h3.16l4.23 5.83 3.99-5.83h2.96v13.84h-3.14v-8.82l-3.81 5.4h-.45l-3.8-5.34v8.76h-3.14zm18.06 0h3.13v13.84h-3.13zm16.29 13.84l-6.5-8.3v8.3h-2.94V18.6h2.51l6.5 8.34V18.6h2.93v13.84zm6.03-13.84h8.12v2.97h-4.99V24h4.4v2.96h-4.4v2.52h5.19v2.96h-8.32z"/></svg>