<svg xmlns="http://www.w3.org/2000/svg" width="18" height="15" viewBox="0 0 18 15"><path fill="#fff" d="M18 1.78c-.66.3-1.37.5-2.12.59A3.77 3.77 0 0 0 17.5.28c-.71.43-1.5.75-2.34.92a3.66 3.66 0 0 0-2.7-1.2 3.74 3.74 0 0 0-3.59 4.65A10.45 10.45 0 0 1 1.25.69 3.82 3.82 0 0 0 2.4 5.75a3.67 3.67 0 0 1-1.68-.47v.04a3.78 3.78 0 0 0 2.97 3.72 3.93 3.93 0 0 1-1.67.06 3.7 3.7 0 0 0 3.45 2.63A7.3 7.3 0 0 1 0 13.3 10.3 10.3 0 0 0 5.66 15c6.79 0 10.51-5.77 10.51-10.77l-.01-.49A7.63 7.63 0 0 0 18 1.78"/></svg>