<svg width="224" height="244" viewBox="0 0 224 244" xmlns="http://www.w3.org/2000/svg" xmlns:xlink="http://www.w3.org/1999/xlink"><title>illustration</title><desc>Created using Figma</desc><g filter="url(#a)" transform="translate(-2539 -2420)"><use xlink:href="#b" transform="translate(2551 2432)" fill="#FFF"/><mask id="c"><use xlink:href="#b" fill="#fff" transform="translate(2551 2432)"/></mask><g mask="url(#c)"><use xlink:href="#d" transform="translate(2551 2432)" fill="#FFF"/></g></g><g transform="translate(82 146)"><use xlink:href="#e" fill="#FFE0AB"/><use xlink:href="#f" fill="#FFBB45"/></g><use xlink:href="#g" transform="translate(103 159)" fill="#FFBB45"/><g transform="translate(-2539 -2420)"><use xlink:href="#h" transform="matrix(-1 0 0 1 2660 2487)" fill="#C8D2E0" fill-opacity=".074"/><mask id="i"><use xlink:href="#h" fill="#fff" transform="matrix(-1 0 0 1 2660 2487)"/></mask><g mask="url(#i)"><use xlink:href="#j" transform="matrix(-1 0 0 1 2660 2487)" fill="#DDE7F3"/></g></g><g transform="translate(-2539 -2420)"><use xlink:href="#k" transform="matrix(-1 0 0 1 2731 2457)" fill="#7460EF" fill-opacity=".1"/><mask id="l"><use xlink:href="#k" fill="#fff" transform="matrix(-1 0 0 1 2731 2457)"/></mask><g mask="url(#l)"><use xlink:href="#m" transform="matrix(-1 0 0 1 2731 2457)" fill="#7460EF"/></g></g><defs><filter id="a" filterUnits="userSpaceOnUse" x="2539" y="2420" width="224" height="244" color-interpolation-filters="sRGB"><feFlood flood-opacity="0" result="BackgroundImageFix"/><feColorMatrix in="SourceAlpha" values="0 0 0 0 0 0 0 0 0 0 0 0 0 0 0 0 0 0 255 0"/><feOffset/><feGaussianBlur stdDeviation="6"/><feColorMatrix values="0 0 0 0 0 0 0 0 0 0 0 0 0 0 0 0 0 0 0.118716 0"/><feBlend in2="BackgroundImageFix" result="effect1_dropShadow"/><feBlend in="SourceGraphic" in2="effect1_dropShadow" result="shape"/></filter><path id="b" fill-rule="evenodd" d="M0 10C0 4.477 4.477 0 10 0h180c5.523 0 10 4.477 10 10v200c0 5.523-4.477 10-10 10H10c-5.523 0-10-4.477-10-10V10z"/><path id="d" d="M10 1h180v-2H10v2zm189 9v200h2V10h-2zm-9 209H10v2h180v-2zM1 210V10h-2v200h2zM10-1C3.925-1-1 3.925-1 10h2a9 9 0 0 1 9-9v-2zm180 2a9 9 0 0 1 9 9h2c0-6.075-4.925-11-11-11v2zm9 209a9 9 0 0 1-9 9v2c6.075 0 11-4.925 11-11h-2zm-189 9a9 9 0 0 1-9-9h-2c0 6.075 4.925 11 11 11v-2z"/><path id="e" fill-rule="evenodd" d="M30 60c16.569 0 30-13.431 30-30C60 13.431 46.569 0 30 0 13.431 0 0 13.431 0 30c0 16.569 13.431 30 30 30z"/><path id="f" d="M30 60.5c16.845 0 30.5-13.655 30.5-30.5h-1c0 16.292-13.208 29.5-29.5 29.5v1zM60.5 30C60.5 13.155 46.845-.5 30-.5v1C46.292.5 59.5 13.708 59.5 30h1zM30-.5C13.155-.5-.5 13.155-.5 30h1C.5 13.708 13.708.5 30 .5v-1zM-.5 30c0 16.845 13.655 30.5 30.5 30.5v-1C13.708 59.5.5 46.292.5 30h-1z"/><path id="g" fill-rule="evenodd" d="M11.9 22.834c0-.926-.228-1.652-.685-2.18-.457-.527-1.26-1.025-2.408-1.494a49.062 49.062 0 0 1-3.182-1.424c-.973-.48-1.81-1.037-2.514-1.67a6.56 6.56 0 0 1-1.617-2.197c-.375-.832-.562-1.84-.562-3.023 0-1.98.668-3.613 2.004-4.896C4.27 4.667 6.053 3.92 8.279 3.71V0h2.795v3.78c2.145.316 3.83 1.198 5.054 2.645 1.224 1.447 1.837 3.284 1.837 5.51h-5.942c0-1.218-.234-2.156-.703-2.812-.468-.656-1.136-.984-2.004-.984-.773 0-1.374.243-1.801.73-.428.485-.642 1.156-.642 2.012 0 .867.246 1.556.738 2.065.493.51 1.284.996 2.373 1.46 1.09.462 2.118.943 3.085 1.44.967.499 1.802 1.064 2.505 1.697a6.944 6.944 0 0 1 1.653 2.215c.398.844.597 1.857.597 3.04 0 2.005-.636 3.64-1.907 4.905-1.271 1.266-3.003 2.004-5.194 2.215v3.533H7.928v-3.55c-2.555-.27-4.515-1.146-5.88-2.628C.683 25.79 0 23.835 0 21.41h5.924c0 1.336.296 2.353.888 3.05.591.697 1.432 1.046 2.522 1.046.797 0 1.424-.237 1.88-.712.458-.475.686-1.128.686-1.96z"/><path id="h" fill-rule="evenodd" d="M63.041 48.083l24.042-24.041L63.042 0l-9.9 9.9 6.1 6.1H53C23.729 16 0 39.729 0 69h16c0-20.435 16.565-37 37-37h6.326l-6.184 6.184 9.9 9.9z"/><path id="j" d="M87.083 24.042l.707.707a1 1 0 0 0 0-1.414l-.707.707zM63.042 48.083l-.708.707a1 1 0 0 0 1.415 0l-.708-.707zm0-48.083l.707-.707a1 1 0 0 0-1.415 0l.707.707zm-9.9 9.9l-.707-.708a1 1 0 0 0 0 1.415l.707-.708zm6.1 6.1v1a1 1 0 0 0 .708-1.707l-.707.707zM0 69h-1a1 1 0 0 0 1 1v-1zm16 0v1a1 1 0 0 0 1-1h-1zm43.326-37l.707.707A1 1 0 0 0 59.326 31v1zm-6.184 6.184l-.707-.707a1 1 0 0 0 0 1.414l.707-.707zm33.234-14.85L62.334 47.377l1.415 1.414L87.79 24.75l-1.414-1.414zM62.334.708L86.376 24.75l1.414-1.414L63.75-.707 62.334.707zm-8.485 9.9l9.9-9.9-1.415-1.414-9.899 9.9 1.414 1.414zm6.1 4.686l-6.1-6.1-1.414 1.414 6.1 6.1 1.415-1.414zM59.244 15H53v2h6.243v-2zM53 15C23.177 15-1 39.177-1 69h2c0-28.719 23.281-52 52-52v-2zM0 70h16v-2H0v2zm17-1c0-19.882 16.118-36 36-36v-2c-20.987 0-38 17.013-38 38h2zm36-36h6.326v-2H53v2zm.85 5.89l6.183-6.183-1.414-1.414-6.184 6.184 1.414 1.414zm9.899 8.486l-9.9-9.9-1.414 1.415 9.9 9.9 1.414-1.415z"/><path id="k" fill-rule="evenodd" d="M0 24.042l24.042 24.041 9.9-9.9L27.756 32h6.326c20.314 0 36.804 16.37 36.999 36.637a61.285 61.285 0 0 1 13.394-16.102C77.55 31.325 57.606 16 34.083 16h-6.242l6.1-6.1-9.9-9.9L0 24.042z"/><path id="m" d="M24.042 48.083l-.707.707.707.708.707-.708-.707-.707zM0 24.042l-.707-.707-.707.707.707.707.707-.707zm33.941 14.142l.707.707.707-.707-.707-.707-.707.707zM27.757 32v-1h-2.414l1.707 1.707.707-.707zm43.325 36.637l-1 .01.035 3.674 1.831-3.185-.866-.499zm13.394-16.102l.648.761.51-.434-.208-.638-.95.31zM27.84 16l-.707-.707L25.426 17h2.415v-1zm6.1-6.1l.707.707.707-.708-.707-.707-.707.707zM24.04 0l.708-.707-.707-.707-.707.707.707.707zm.708 47.376L.707 23.335l-1.414 1.414L23.335 48.79l1.414-1.414zm8.485-9.9l-9.9 9.9 1.415 1.414 9.9-9.9-1.415-1.413zm-6.184-4.769l6.184 6.184 1.414-1.414-6.184-6.184-1.414 1.414zM34.083 31h-6.326v2h6.326v-2zm37.999 37.628C71.882 47.812 54.946 31 34.083 31v2c19.765 0 35.81 15.927 35.999 35.647l2-.02zm11.746-16.855A62.722 62.722 0 0 0 70.215 68.14l1.733.997a59.857 59.857 0 0 1 13.176-15.84l-1.296-1.523zM34.083 17c23.078 0 42.647 15.034 49.442 35.845l1.901-.62C78.37 30.614 58.052 15 34.083 15v2zm-6.242 0h6.242v-2h-6.242v2zm5.393-7.808l-6.1 6.1 1.414 1.415 6.1-6.1-1.414-1.415zm-9.9-8.485l9.9 9.9 1.414-1.415-9.9-9.9L23.336.708zM.708 24.75L24.75.707 23.335-.707-.707 23.335l1.414 1.414z"/></defs></svg>