<svg width="304" height="284" viewBox="0 0 304 284" xmlns="http://www.w3.org/2000/svg" xmlns:xlink="http://www.w3.org/1999/xlink"><title>illustration</title><desc>Created using Figma</desc><g filter="url(#a)" transform="translate(-2180 -2400)"><use xlink:href="#b" transform="translate(2192 2412)" fill="#FFF"/><mask id="c"><use xlink:href="#b" fill="#fff" transform="translate(2192 2412)"/></mask><g mask="url(#c)"><use xlink:href="#d" transform="translate(2192 2412)" fill="#FFF"/></g></g><use xlink:href="#e" transform="translate(42 169)" fill="#DDE7F3"/><use xlink:href="#f" transform="translate(42 154)" fill="#AEB7C5"/><use xlink:href="#g" transform="translate(98 213)" fill="#AEB7C5"/><use xlink:href="#h" transform="translate(187 213)" fill="#AEB7C5"/><use xlink:href="#i" transform="translate(228 213)" fill="#AEB7C5"/><use xlink:href="#j" transform="translate(139 213)" fill="#AEB7C5"/><use xlink:href="#k" transform="translate(42 115)" fill="#AEB7C5"/><use xlink:href="#l" transform="translate(42 76)" fill="#AEB7C5"/><use xlink:href="#e" transform="translate(42 130)" fill="#DDE7F3"/><use xlink:href="#e" transform="translate(42 91)" fill="#DDE7F3"/><g transform="translate(44.75 65.96)" fill="#00B1FE"><use xlink:href="#m" fill-opacity=".104"/><use xlink:href="#n"/></g><use xlink:href="#o" transform="translate(42 208)" fill="#DDE7F3"/><defs><filter id="a" filterUnits="userSpaceOnUse" x="2180" y="2400" width="304" height="284" color-interpolation-filters="sRGB"><feFlood flood-opacity="0" result="BackgroundImageFix"/><feColorMatrix in="SourceAlpha" values="0 0 0 0 0 0 0 0 0 0 0 0 0 0 0 0 0 0 255 0"/><feOffset/><feGaussianBlur stdDeviation="6"/><feColorMatrix values="0 0 0 0 0 0 0 0 0 0 0 0 0 0 0 0 0 0 0.118716 0"/><feBlend in2="BackgroundImageFix" result="effect1_dropShadow"/><feBlend in="SourceGraphic" in2="effect1_dropShadow" result="shape"/></filter><path id="b" fill-rule="evenodd" d="M0 10C0 4.477 4.477 0 10 0h260c5.523 0 10 4.477 10 10v240c0 5.523-4.477 10-10 10H10c-5.523 0-10-4.477-10-10V10z"/><path id="d" d="M10 1h260v-2H10v2zm269 9v240h2V10h-2zm-9 249H10v2h260v-2zM1 250V10h-2v240h2zM10-1C3.925-1-1 3.925-1 10h2a9 9 0 0 1 9-9v-2zm260 2a9 9 0 0 1 9 9h2c0-6.075-4.925-11-11-11v2zm9 249a9 9 0 0 1-9 9v2c6.075 0 11-4.925 11-11h-2zm-269 9a9 9 0 0 1-9-9h-2c0 6.075 4.925 11 11 11v-2z"/><path id="e" fill-rule="evenodd" d="M0 .5A.5.5 0 0 1 .5 0h219a.5.5 0 0 1 0 1H.5A.5.5 0 0 1 0 .5z"/><path id="f" d="M1.207 6.723l.434-4.254h4.37V3.47h-3.45l-.258 2.326c.418-.246.892-.37 1.424-.37.777 0 1.394.259 1.851.774.457.512.686 1.205.686 2.08 0 .88-.239 1.573-.715 2.08-.473.504-1.135.756-1.987.756-.753 0-1.369-.209-1.845-.627-.477-.418-.748-.996-.815-1.734h1.026c.066.488.24.857.521 1.107.281.246.653.37 1.114.37.503 0 .898-.173 1.183-.516.29-.344.434-.819.434-1.424 0-.57-.157-1.027-.47-1.371-.308-.348-.72-.522-1.235-.522-.473 0-.844.104-1.114.31l-.287.235-.867-.222z"/><path id="g" d="M6.059 7.361c0 1.27-.217 2.213-.65 2.83-.434.618-1.112.926-2.034.926-.91 0-1.584-.3-2.021-.902-.438-.606-.665-1.508-.68-2.707V6.06c0-1.254.217-2.186.65-2.795.434-.61 1.113-.914 2.04-.914.917 0 1.593.294 2.027.884.433.586.656 1.493.668 2.72V7.36zM4.975 5.88c0-.918-.13-1.586-.387-2.004-.258-.422-.666-.633-1.225-.633-.554 0-.959.21-1.213.627-.254.418-.384 1.06-.392 1.928V7.53c0 .922.133 1.604.398 2.045.27.438.676.656 1.219.656.535 0 .932-.207 1.19-.62.261-.415.398-1.067.41-1.958V5.88zm2.607 4.553c0-.188.055-.344.164-.47.113-.124.281-.187.504-.187.223 0 .39.063.504.188a.659.659 0 0 1 .176.469.62.62 0 0 1-.176.45c-.113.122-.281.183-.504.183-.223 0-.39-.061-.504-.182a.648.648 0 0 1-.164-.451zm8.62.568h-5.59v-.78l2.953-3.28c.437-.497.738-.899.902-1.208.168-.312.252-.634.252-.966 0-.446-.135-.81-.404-1.096-.27-.285-.63-.428-1.079-.428-.539 0-.959.154-1.26.463-.296.305-.445.73-.445 1.277h-1.084c0-.785.252-1.42.756-1.904.508-.484 1.186-.726 2.033-.726.793 0 1.42.209 1.881.627.461.414.692.966.692 1.658 0 .84-.536 1.84-1.606 3l-2.285 2.478h4.283V11z"/><path id="h" d="M6.059 7.361c0 1.27-.217 2.213-.65 2.83-.434.618-1.112.926-2.034.926-.91 0-1.584-.3-2.021-.902-.438-.606-.665-1.508-.68-2.707V6.06c0-1.254.217-2.186.65-2.795.434-.61 1.113-.914 2.04-.914.917 0 1.593.294 2.027.884.433.586.656 1.493.668 2.72V7.36zM4.975 5.88c0-.918-.13-1.586-.387-2.004-.258-.422-.666-.633-1.225-.633-.554 0-.959.21-1.213.627-.254.418-.384 1.06-.392 1.928V7.53c0 .922.133 1.604.398 2.045.27.438.676.656 1.219.656.535 0 .932-.207 1.19-.62.261-.415.398-1.067.41-1.958V5.88zm2.607 4.553c0-.188.055-.344.164-.47.113-.124.281-.187.504-.187.223 0 .39.063.504.188a.659.659 0 0 1 .176.469.62.62 0 0 1-.176.45c-.113.122-.281.183-.504.183-.223 0-.39-.061-.504-.182a.648.648 0 0 1-.164-.451zm4.606-4.225h.814c.512-.008.914-.143 1.207-.404.293-.262.44-.615.44-1.06 0-1-.499-1.5-1.495-1.5-.469 0-.844.134-1.125.403-.277.266-.416.62-.416 1.061H10.53c0-.676.246-1.236.739-1.682.496-.449 1.125-.673 1.886-.673.805 0 1.436.212 1.893.638.457.426.685 1.018.685 1.776 0 .37-.12.73-.363 1.078a2.157 2.157 0 0 1-.978.779c.468.148.83.395 1.084.738.257.344.386.764.386 1.26 0 .766-.25 1.373-.75 1.822-.5.45-1.15.674-1.95.674-.802 0-1.454-.217-1.958-.65-.5-.434-.75-1.006-.75-1.717h1.09c0 .45.147.809.44 1.078.292.27.685.404 1.177.404.524 0 .924-.136 1.201-.41.278-.273.416-.666.416-1.177 0-.497-.152-.877-.457-1.143-.304-.266-.744-.402-1.318-.41h-.815v-.885z"/><path id="i" d="M6.059 7.361c0 1.27-.217 2.213-.65 2.83-.434.618-1.112.926-2.034.926-.91 0-1.584-.3-2.021-.902-.438-.606-.665-1.508-.68-2.707V6.06c0-1.254.217-2.186.65-2.795.434-.61 1.113-.914 2.04-.914.917 0 1.593.294 2.027.884.433.586.656 1.493.668 2.72V7.36zM4.975 5.88c0-.918-.13-1.586-.387-2.004-.258-.422-.666-.633-1.225-.633-.554 0-.959.21-1.213.627-.254.418-.384 1.06-.392 1.928V7.53c0 .922.133 1.604.398 2.045.27.438.676.656 1.219.656.535 0 .932-.207 1.19-.62.261-.415.398-1.067.41-1.958V5.88zm2.607 4.553c0-.188.055-.344.164-.47.113-.124.281-.187.504-.187.223 0 .39.063.504.188a.659.659 0 0 1 .176.469.62.62 0 0 1-.176.45c-.113.122-.281.183-.504.183-.223 0-.39-.061-.504-.182a.648.648 0 0 1-.164-.451zm4.606-4.225h.814c.512-.008.914-.143 1.207-.404.293-.262.44-.615.44-1.06 0-1-.499-1.5-1.495-1.5-.469 0-.844.134-1.125.403-.277.266-.416.62-.416 1.061H10.53c0-.676.246-1.236.739-1.682.496-.449 1.125-.673 1.886-.673.805 0 1.436.212 1.893.638.457.426.685 1.018.685 1.776 0 .37-.12.73-.363 1.078a2.157 2.157 0 0 1-.978.779c.468.148.83.395 1.084.738.257.344.386.764.386 1.26 0 .766-.25 1.373-.75 1.822-.5.45-1.15.674-1.95.674-.802 0-1.454-.217-1.958-.65-.5-.434-.75-1.006-.75-1.717h1.09c0 .45.147.809.44 1.078.292.27.685.404 1.177.404.524 0 .924-.136 1.201-.41.278-.273.416-.666.416-1.177 0-.497-.152-.877-.457-1.143-.304-.266-.744-.402-1.318-.41h-.815v-.885zm5.66.516l.433-4.254h4.371v1h-3.45l-.259 2.326c.418-.246.893-.37 1.424-.37.777 0 1.395.259 1.852.774.457.512.685 1.205.685 2.08 0 .88-.238 1.573-.715 2.08-.472.504-1.134.756-1.986.756-.754 0-1.369-.209-1.846-.627-.476-.418-.748-.996-.814-1.734h1.025c.067.488.24.857.522 1.107.281.246.652.37 1.113.37.504 0 .899-.173 1.184-.516.289-.344.433-.819.433-1.424 0-.57-.156-1.027-.468-1.371-.309-.348-.721-.522-1.237-.522-.472 0-.843.104-1.113.31l-.287.235-.867-.222z"/><path id="j" d="M6.37 7.361c0 1.27-.218 2.213-.651 2.83-.434.618-1.112.926-2.033.926-.91 0-1.584-.3-2.022-.902C1.227 9.609 1 8.707.984 7.508V6.06c0-1.254.217-2.186.65-2.795.434-.61 1.114-.914 2.04-.914.918 0 1.594.294 2.027.884.434.586.656 1.493.668 2.72V7.36zM5.284 5.88c0-.918-.129-1.586-.387-2.004-.257-.422-.666-.633-1.224-.633-.555 0-.96.21-1.213.627-.254.418-.385 1.06-.393 1.928V7.53c0 .922.133 1.604.399 2.045.27.438.676.656 1.219.656.535 0 .931-.207 1.189-.62.262-.415.398-1.067.41-1.958V5.88zm2.608 4.553c0-.188.054-.344.164-.47.113-.124.28-.187.504-.187.222 0 .39.063.503.188a.659.659 0 0 1 .176.469c0 .18-.058.33-.176.45-.113.122-.28.183-.503.183-.223 0-.391-.061-.504-.182a.648.648 0 0 1-.164-.451zm8.619.568h-5.59v-.78l2.953-3.28c.438-.497.738-.899.902-1.208.168-.312.252-.634.252-.966 0-.446-.134-.81-.404-1.096-.27-.285-.629-.428-1.078-.428-.54 0-.96.154-1.26.463-.297.305-.445.73-.445 1.277h-1.084c0-.785.252-1.42.756-1.904.508-.484 1.185-.726 2.033-.726.793 0 1.42.209 1.88.627.462.414.692.966.692 1.658 0 .84-.535 1.84-1.605 3l-2.285 2.478h4.283V11zm1.646-4.277l.434-4.254h4.37v1h-3.45l-.258 2.326c.418-.246.892-.37 1.424-.37.777 0 1.394.259 1.851.774.457.512.686 1.205.686 2.08 0 .88-.238 1.573-.715 2.08-.473.504-1.135.756-1.986.756-.754 0-1.37-.209-1.846-.627-.477-.418-.748-.996-.814-1.734h1.025c.066.488.24.857.521 1.107.282.246.653.37 1.114.37.504 0 .898-.173 1.183-.516.29-.344.434-.819.434-1.424 0-.57-.156-1.027-.469-1.371-.308-.348-.72-.522-1.236-.522-.473 0-.844.104-1.113.31l-.288.235-.867-.222z"/><path id="k" d="M4.271 11h-1.09V3.775l-2.185.803v-.984l3.106-1.166h.17V11zm8.526-3.639c0 1.27-.217 2.213-.65 2.83-.434.618-1.112.926-2.034.926-.91 0-1.584-.3-2.021-.902-.438-.606-.664-1.508-.68-2.707V6.06c0-1.254.217-2.186.65-2.795.434-.61 1.114-.914 2.04-.914.918 0 1.593.294 2.027.884.434.586.656 1.493.668 2.72V7.36zM11.713 5.88c0-.918-.129-1.586-.387-2.004-.258-.422-.666-.633-1.224-.633-.555 0-.96.21-1.213.627-.254.418-.385 1.06-.393 1.928V7.53c0 .922.133 1.604.399 2.045.27.438.675.656 1.218.656.535 0 .932-.207 1.19-.62.261-.415.398-1.067.41-1.958V5.88z"/><path id="l" d="M4.271 11h-1.09V3.775l-2.185.803v-.984l3.106-1.166h.17V11zm3.674-4.277l.434-4.254h4.371V3.47H9.299L9.04 5.797c.418-.246.893-.37 1.424-.37.777 0 1.394.259 1.851.774.457.512.686 1.205.686 2.08 0 .88-.238 1.573-.715 2.08-.473.504-1.135.756-1.986.756-.754 0-1.37-.209-1.846-.627-.476-.418-.748-.996-.814-1.734h1.025c.066.488.24.857.521 1.107.282.246.653.37 1.114.37.504 0 .898-.173 1.183-.516.29-.344.434-.819.434-1.424 0-.57-.156-1.027-.469-1.371-.308-.348-.72-.522-1.236-.522-.473 0-.844.104-1.113.31l-.287.235-.868-.222z"/><path id="m" fill-rule="evenodd" d="M0 142.688l47.646-7.43a3.998 3.998 0 0 0 2.265-1.177l1.898-1.972a4.008 4.008 0 0 1 2.439-1.201l8.141-.906a4 4 0 0 0 3.097-2.111l5.069-9.621a4.003 4.003 0 0 1 1.722-1.699l9.82-5.005s9.257-15.394 12.363-41.49c2.698-22.669 10.229-58.828 12.162-67.939.178-.84 1.258-1.059 1.77-.37l8.874 11.935c.099.132.159.26.183.423.513 3.422 6.898 45.6 14.03 70.978 7.438 26.463 14.306 31.753 14.306 31.753l3.909 1.185a4 4 0 0 1 1.991 1.364l14.54 18.596a4.003 4.003 0 0 0 2.816 1.522l13.137 1.106 32.912 2.548"/><path id="n" d="M47.646 135.258l-.077-.494.077.494zm4.163-3.149l-.36-.346.36.346zm10.58-2.107l-.055-.497.055.497zm8.166-11.732l-.443-.233.443.233zm11.542-6.704l.227.446.127-.065.074-.123-.428-.258zm12.363-41.49l-.496-.06.496.06zm22.806-56.374l.401-.299-.401.299zm28.519 103.154l-.305.397.073.055.087.027.145-.479zm3.909 1.185l.145-.478-.145.478zm16.531 19.96l-.394.308.394-.308zm15.953 2.628l-.042.498h.003l.039-.498zm-127.93-9.721l.055.497-.055-.497zm11.238-3.017l-.443-.233.443.233zm6.791-11.32l-.227-.445.227.445zM108.392 1.768l-.401.298.401-.298zm9.057 12.357l-.494.074.494-.074zm34.236 105.28l.394-.308-.394.308zm17.356 20.118l.042-.499-.042.499zM.077 143.182l47.646-7.43-.154-.988-47.646 7.429.154.989zm50.194-8.755l1.898-1.971-.72-.693-1.898 1.971.72.693zm4.032-3.022l8.142-.906-.111-.994-8.142.907.111.993zm11.625-3.281l5.07-9.621-.886-.466-5.069 9.621.885.466zm6.576-11.107l9.82-5.005-.454-.891-9.82 5.005.454.891zm9.593-5.451l.428.258v-.001l.002-.003.006-.009.021-.036c.018-.031.046-.077.08-.138.07-.121.174-.303.305-.542.26-.475.64-1.188 1.1-2.12.92-1.858 2.184-4.62 3.542-8.19 2.709-7.128 5.815-17.56 7.376-30.65l-.993-.119c-1.547 13.006-4.622 23.32-7.318 30.413-1.345 3.54-2.59 6.258-3.502 8.102a55.39 55.39 0 0 1-1.082 2.082 31.027 31.027 0 0 1-.388.687l-.005.007v.002l.428.257zm12.86-41.432c2.695-22.646 10.222-58.784 12.154-67.893l-.978-.208c-1.933 9.112-9.468 45.294-12.17 67.983l.994.118zM107.99 2.066L116.865 14l.802-.597-8.873-11.934-.803.597zm8.964 12.133c.512 3.423 6.904 45.632 14.043 71.039l.963-.27c-7.125-25.348-13.505-67.495-14.017-70.917l-.989.148zm14.043 71.039c3.73 13.267 7.331 21.262 9.989 25.914 1.338 2.339 2.455 3.863 3.225 4.785.391.468.707.797.915.999a5.66 5.66 0 0 0 .349.313l.002.002.001.001c.001 0 .001.001.306-.396.305-.396.306-.395.306-.395l.001.001-.001-.001-.009-.008a4.843 4.843 0 0 1-.258-.234 11.87 11.87 0 0 1-.845-.923c-.75-.897-1.815-2.35-3.124-4.641-2.635-4.609-6.187-12.491-9.894-25.688l-.963.27zm14.642 32.097l3.909 1.185.29-.957-3.909-1.185-.29.957zm5.651 2.378l14.54 18.596.788-.616-14.54-18.596-.788.616zm17.708 20.308l13.137 1.106.084-.996-13.137-1.107-.084.997zm13.14 1.106l32.912 2.548.077-.997-32.912-2.548-.077.997zm-134.416-5.375a4.71 4.71 0 0 0 2.548-1.325l-.72-.693a3.299 3.299 0 0 1-1.982 1.03l.154.988zm4.446-3.296a3.309 3.309 0 0 1 2.134-1.051l-.11-.993a4.714 4.714 0 0 0-2.744 1.351l.72.693zm10.276-1.957a4.498 4.498 0 0 0 3.483-2.375l-.885-.466a3.499 3.499 0 0 1-2.709 1.847l.11.994zm8.552-11.996a3.305 3.305 0 0 1 1.507-1.486l-.454-.891a4.722 4.722 0 0 0-1.938 1.911l.885.466zM107.111 2.241a.49.49 0 0 1 .88-.175l.803-.597c-.758-1.02-2.39-.715-2.661.564l.978.208zM116.865 14c.07.09.081.107.09.2l.989-.149a1.63 1.63 0 0 0-.277-.648l-.802.597zm32.684 104.52a3.304 3.304 0 0 1 1.742 1.193l.788-.616a4.716 4.716 0 0 0-2.24-1.534l-.29.957zm16.282 19.789a4.504 4.504 0 0 0 3.168 1.712l.084-.997a3.498 3.498 0 0 1-2.464-1.331l-.788.616z"/><path id="o" fill-rule="evenodd" d="M0 1a1 1 0 0 1 1-1h218a1 1 0 0 1 0 2H1a1 1 0 0 1-1-1z"/></defs></svg>