<svg xmlns="http://www.w3.org/2000/svg" width="154" height="194" viewBox="0 0 154 194"><defs><filter id="a" width="200%" height="200%" x="-50%" y="-50%"><feMorphology in="SourceGraphic" operator="dilate" result="SvgjsFeMorphology1010Out"/><feOffset in="SvgjsFeMorphology1010Out" result="SvgjsFeOffset1011Out"/><feGaussianBlur in="SvgjsFeOffset1011Out" result="SvgjsFeGaussianBlur1012Out" stdDeviation="6"/><feComposite in="SvgjsFeGaussianBlur1012Out" in2="SourceAlpha" operator="out" result="SvgjsFeComposite1013Out"/></filter><clipPath id="b"><path fill="#fff" d="M20 2984a10 10 0 0 1 10-10h110a10 10 0 0 1 10 10v150a10 10 0 0 1-10 10H30a10 10 0 0 1-10-10z"/></clipPath><clipPath id="c"><path fill="#fff" d="M65 3050a8 8 0 0 1 8-8h54a8 8 0 0 1 8 8v2a8 8 0 0 1-8 8H73a8 8 0 0 1-8-8z"/></clipPath><clipPath id="d"><path fill="#fff" d="M35 3046a8 8 0 0 1 8-8h10a8 8 0 0 1 8 8v10a8 8 0 0 1-8 8H43a8 8 0 0 1-8-8z"/></clipPath><clipPath id="e"><path fill="#fff" d="M65 3081a8 8 0 0 1 8-8h54a8 8 0 0 1 8 8v2a8 8 0 0 1-8 8H73a8 8 0 0 1-8-8z"/></clipPath><clipPath id="f"><path fill="#fff" d="M35 3077a8 8 0 0 1 8-8h10a8 8 0 0 1 8 8v10a8 8 0 0 1-8 8H43a8 8 0 0 1-8-8z"/></clipPath></defs><path fill-opacity=".12" d="M20 2984a10 10 0 0 1 10-10h110a10 10 0 0 1 10 10v150a10 10 0 0 1-10 10H30a10 10 0 0 1-10-10z" filter="url(#a)" transform="translate(-8 -2962)"/><path fill="#fff" d="M12 22a10 10 0 0 1 10-10h110a10 10 0 0 1 10 10v150a10 10 0 0 1-10 10H22a10 10 0 0 1-10-10z"/><path fill="none" stroke="#fff" stroke-miterlimit="50" stroke-width="2" d="M20 2984a10 10 0 0 1 10-10h110a10 10 0 0 1 10 10v150a10 10 0 0 1-10 10H30a10 10 0 0 1-10-10z" clip-path="url(&quot;#b&quot;)" transform="translate(-8 -2962)"/><path fill="#7ace4c" fill-opacity=".1" d="M57 45a20 20 0 1 1 40 0 20 20 0 0 1-40 0z"/><path fill="none" stroke="#7ace4c" stroke-miterlimit="50" d="M57 45a20 20 0 1 1 40 0 20 20 0 0 1-40 0z"/><path fill="#7ace4c" d="M68 41.5c0-5.8 4.25-10.5 9.5-10.5S87 35.7 87 41.5 82.75 52 77.5 52 68 47.3 68 41.5zM57 74a20 20 0 1 1 40 0 20 20 0 0 1-40 0z"/><path fill="#c8d2e0" fill-opacity=".07" d="M57 88a8 8 0 0 1 8-8h54a8 8 0 0 1 8 8v2a8 8 0 0 1-8 8H65a8 8 0 0 1-8-8z"/><path fill="none" stroke="#dde7f3" stroke-miterlimit="50" stroke-width="2" d="M65 3050a8 8 0 0 1 8-8h54a8 8 0 0 1 8 8v2a8 8 0 0 1-8 8H73a8 8 0 0 1-8-8z" clip-path="url(&quot;#c&quot;)" transform="translate(-8 -2962)"/><path fill="#c8d2e0" fill-opacity=".07" d="M27 84a8 8 0 0 1 8-8h10a8 8 0 0 1 8 8v10a8 8 0 0 1-8 8H35a8 8 0 0 1-8-8z"/><path fill="none" stroke="#dde7f3" stroke-miterlimit="50" stroke-width="2" d="M35 3046a8 8 0 0 1 8-8h10a8 8 0 0 1 8 8v10a8 8 0 0 1-8 8H43a8 8 0 0 1-8-8z" clip-path="url(&quot;#d&quot;)" transform="translate(-8 -2962)"/><path fill="#c8d2e0" fill-opacity=".07" d="M57 119a8 8 0 0 1 8-8h54a8 8 0 0 1 8 8v2a8 8 0 0 1-8 8H65a8 8 0 0 1-8-8z"/><path fill="none" stroke="#dde7f3" stroke-miterlimit="50" stroke-width="2" d="M65 3081a8 8 0 0 1 8-8h54a8 8 0 0 1 8 8v2a8 8 0 0 1-8 8H73a8 8 0 0 1-8-8z" clip-path="url(&quot;#e&quot;)" transform="translate(-8 -2962)"/><path fill="#c8d2e0" fill-opacity=".07" d="M27 115a8 8 0 0 1 8-8h10a8 8 0 0 1 8 8v10a8 8 0 0 1-8 8H35a8 8 0 0 1-8-8z"/><path fill="none" stroke="#dde7f3" stroke-miterlimit="50" stroke-width="2" d="M35 3077a8 8 0 0 1 8-8h10a8 8 0 0 1 8 8v10a8 8 0 0 1-8 8H43a8 8 0 0 1-8-8z" clip-path="url(&quot;#f&quot;)" transform="translate(-8 -2962)"/><path fill="#7460ef" fill-opacity=".1" d="M37 157a8 8 0 0 1 8-8h64a8 8 0 0 1 8 8v4a8 8 0 0 1-8 8H45a8 8 0 0 1-8-8z"/><path fill="none" stroke="#7460ef" stroke-miterlimit="50" d="M37 157a8 8 0 0 1 8-8h64a8 8 0 0 1 8 8v4a8 8 0 0 1-8 8H45a8 8 0 0 1-8-8z"/></svg>