<svg width="224" height="244" viewBox="0 0 224 244" xmlns="http://www.w3.org/2000/svg" xmlns:xlink="http://www.w3.org/1999/xlink"><title>Register</title><desc>Created using Figma</desc><g filter="url(#a)" transform="translate(-1901 -2420)"><use xlink:href="#b" transform="translate(1913 2432)" fill="#FFF"/><mask id="c"><use xlink:href="#b" fill="#fff" transform="translate(1913 2432)"/></mask><g mask="url(#c)"><use xlink:href="#d" transform="translate(1913 2432)" fill="#FFF"/></g></g><g transform="translate(-1901 -2420)"><mask id="g"><g transform="translate(1983 2452)" fill="#FFF"><use xlink:href="#e"/><use xlink:href="#f"/></g></mask><g mask="url(#g)" fill="#7ACE4C"><use xlink:href="#e" transform="translate(1983 2452)" fill-opacity=".1"/><use xlink:href="#f" transform="translate(1983 2452)"/></g><g opacity=".3" mask="url(#g)"><use xlink:href="#h" transform="translate(1999 2461)" fill="#7ACE4C"/></g><g opacity=".3" mask="url(#g)"><use xlink:href="#e" transform="translate(1983 2495)" fill="#7ACE4C"/></g></g><g transform="translate(-1901 -2420)"><use xlink:href="#i" transform="translate(1963 2530)" fill="#C8D2E0" fill-opacity=".074"/><mask id="j"><use xlink:href="#i" fill="#fff" transform="translate(1963 2530)"/></mask><g mask="url(#j)"><use xlink:href="#k" transform="translate(1963 2530)" fill="#DDE7F3"/></g></g><g transform="translate(-1901 -2420)"><use xlink:href="#l" transform="translate(1933 2526)" fill="#C8D2E0" fill-opacity=".074"/><mask id="m"><use xlink:href="#l" fill="#fff" transform="translate(1933 2526)"/></mask><g mask="url(#m)"><use xlink:href="#n" transform="translate(1933 2526)" fill="#DDE7F3"/></g></g><g transform="translate(-1901 -2420)"><use xlink:href="#l" transform="translate(1933 2562)" fill="#C8D2E0" fill-opacity=".074"/><mask id="o"><use xlink:href="#l" fill="#fff" transform="translate(1933 2562)"/></mask><g mask="url(#o)"><use xlink:href="#n" transform="translate(1933 2562)" fill="#DDE7F3"/></g></g><g transform="translate(-1901 -2420)"><use xlink:href="#p" transform="translate(1963 2566)" fill="#C8D2E0" fill-opacity=".074"/><mask id="q"><use xlink:href="#p" fill="#fff" transform="translate(1963 2566)"/></mask><g mask="url(#q)"><use xlink:href="#k" transform="translate(1963 2566)" fill="#DDE7F3"/></g></g><g transform="translate(72 188)" fill="#7460EF"><use xlink:href="#r" fill-opacity=".1"/><use xlink:href="#s"/></g><defs><filter id="a" filterUnits="userSpaceOnUse" x="1901" y="2420" width="224" height="244" color-interpolation-filters="sRGB"><feFlood flood-opacity="0" result="BackgroundImageFix"/><feColorMatrix in="SourceAlpha" values="0 0 0 0 0 0 0 0 0 0 0 0 0 0 0 0 0 0 255 0"/><feOffset/><feGaussianBlur stdDeviation="6"/><feColorMatrix values="0 0 0 0 0 0 0 0 0 0 0 0 0 0 0 0 0 0 0.118716 0"/><feBlend in2="BackgroundImageFix" result="effect1_dropShadow"/><feBlend in="SourceGraphic" in2="effect1_dropShadow" result="shape"/></filter><path id="b" fill-rule="evenodd" d="M0 10C0 4.477 4.477 0 10 0h180c5.523 0 10 4.477 10 10v200c0 5.523-4.477 10-10 10H10c-5.523 0-10-4.477-10-10V10z"/><path id="d" d="M10 1h180v-2H10v2zm189 9v200h2V10h-2zm-9 209H10v2h180v-2zM1 210V10h-2v200h2zM10-1C3.925-1-1 3.925-1 10h2a9 9 0 0 1 9-9v-2zm180 2a9 9 0 0 1 9 9h2c0-6.075-4.925-11-11-11v2zm9 209a9 9 0 0 1-9 9v2c6.075 0 11-4.925 11-11h-2zm-189 9a9 9 0 0 1-9-9h-2c0 6.075 4.925 11 11 11v-2z"/><path id="e" fill-rule="evenodd" d="M30 60c16.569 0 30-13.431 30-30C60 13.431 46.569 0 30 0 13.431 0 0 13.431 0 30c0 16.569 13.431 30 30 30z"/><path id="f" d="M30 60.5c16.845 0 30.5-13.655 30.5-30.5h-1c0 16.292-13.208 29.5-29.5 29.5v1zM60.5 30C60.5 13.155 46.845-.5 30-.5v1C46.292.5 59.5 13.708 59.5 30h1zM30-.5C13.155-.5-.5 13.155-.5 30h1C.5 13.708 13.708.5 30 .5v-1zM-.5 30c0 16.845 13.655 30.5 30.5 30.5v-1C13.708 59.5.5 46.292.5 30h-1z"/><path id="h" fill-rule="evenodd" d="M14 32c7.732 0 14-7.163 14-16S21.732 0 14 0 0 7.163 0 16s6.268 16 14 16z"/><path id="i" fill-rule="evenodd" d="M0 8a8 8 0 0 1 8-8h114a8 8 0 0 1 8 8v2a8 8 0 0 1-8 8H8a8 8 0 0 1-8-8V8z"/><path id="k" d="M8 1h114v-2H8v2zm121 7v2h2V8h-2zm-7 9H8v2h114v-2zM1 10V8h-2v2h2zM8-1a9 9 0 0 0-9 9h2a7 7 0 0 1 7-7v-2zm114 2a7 7 0 0 1 7 7h2a9 9 0 0 0-9-9v2zm7 9a7 7 0 0 1-7 7v2a9 9 0 0 0 9-9h-2zM8 17a7 7 0 0 1-7-7h-2a9 9 0 0 0 9 9v-2z"/><path id="l" fill-rule="evenodd" d="M0 8a8 8 0 0 1 8-8h10a8 8 0 0 1 8 8v10a8 8 0 0 1-8 8H8a8 8 0 0 1-8-8V8z"/><path id="n" d="M8 1h10v-2H8v2zm17 7v10h2V8h-2zm-7 17H8v2h10v-2zM1 18V8h-2v10h2zM8-1a9 9 0 0 0-9 9h2a7 7 0 0 1 7-7v-2zm10 2a7 7 0 0 1 7 7h2a9 9 0 0 0-9-9v2zm7 17a7 7 0 0 1-7 7v2a9 9 0 0 0 9-9h-2zM8 25a7 7 0 0 1-7-7h-2a9 9 0 0 0 9 9v-2z"/><path id="p" fill-rule="evenodd" d="M0 8a8 8 0 0 1 8-8h114a8 8 0 0 1 8 8v2a8 8 0 0 1-8 8H8a8 8 0 0 1-8-8V8z"/><path id="r" fill-rule="evenodd" d="M0 8a8 8 0 0 1 8-8h64a8 8 0 0 1 8 8v4a8 8 0 0 1-8 8H8a8 8 0 0 1-8-8V8z"/><path id="s" d="M8 .5h64v-1H8v1zM79.5 8v4h1V8h-1zM72 19.5H8v1h64v-1zM.5 12V8h-1v4h1zM8-.5A8.5 8.5 0 0 0-.5 8h1A7.5 7.5 0 0 1 8 .5v-1zm64 1A7.5 7.5 0 0 1 79.5 8h1A8.5 8.5 0 0 0 72-.5v1zM79.5 12a7.5 7.5 0 0 1-7.5 7.5v1a8.5 8.5 0 0 0 8.5-8.5h-1zM8 19.5A7.5 7.5 0 0 1 .5 12h-1A8.5 8.5 0 0 0 8 20.5v-1z"/></defs></svg>