<svg width="986" height="337" viewBox="0 0 986 337" xmlns="http://www.w3.org/2000/svg" xmlns:xlink="http://www.w3.org/1999/xlink"><title>Component</title><desc>Created using Figma</desc><use xlink:href="#a" transform="translate(1 37)" fill="#007EFE" opacity=".5"/><use xlink:href="#b" transform="translate(39.5 151.45)" fill="#007EFE" opacity=".5"/><use xlink:href="#c" transform="rotate(45 -296.8 388.131)" fill="#007EFE" opacity=".5"/><g fill="#007EFE"><use xlink:href="#a" transform="rotate(180 492.5 150)" opacity=".5"/><use xlink:href="#b" transform="rotate(180 473.25 92.775)" opacity=".5"/><use xlink:href="#c" transform="scale(1 -1) rotate(45 413.975 953.504)" opacity=".5"/></g><defs><path id="a" d="M54.032 108.992a1 1 0 1 0-.035 1.999l.035-1.999zm-6.014 1.577a1 1 0 0 0 .247-1.985l-.247 1.985zm-1.66-2.257a1.001 1.001 0 0 0-.318 1.975l.318-1.975zm-6.179.706a1 1 0 0 0 .528-1.929l-.528 1.929zm-1.32-2.471a1 1 0 1 0-.597 1.908l.597-1.908zm-6.216-.188a1 1 0 1 0 .8-1.833l-.8 1.833zm-.953-2.635a1 1 0 1 0-.864 1.804l.864-1.804zm-6.124-1.075a1 1 0 1 0 1.052-1.7l-1.052 1.7zm-.569-2.744a1 1 0 0 0-1.112 1.662l1.112-1.662zm-5.909-1.934a1 1 0 1 0 1.284-1.534l-1.284 1.534zm-.173-2.797a1 1 0 0 0-1.337 1.487l1.337-1.487zm-5.576-2.752a1 1 0 0 0 1.487-1.337l-1.487 1.337zm.224-2.793a1 1 0 0 0-1.534 1.283l1.534-1.284zm-5.13-3.514a1 1 0 1 0 1.662-1.112l-1.662 1.112zm.618-2.733a1 1 0 1 0-1.7 1.052l1.7-1.052zm-4.579-4.208a1 1 0 1 0 1.804-.864l-1.803.864zm1.002-2.617a1 1 0 0 0-1.833.8l1.833-.8zm-3.93-4.819a1 1 0 1 0 1.91-.597l-1.91.597zm1.367-2.445a1 1 0 1 0-1.929.528l1.93-.528zM-.287 63.96a1 1 0 1 0 1.975-.318l-1.975.318zm1.703-2.225a1 1 0 0 0-1.985.247l1.985-.247zm-2.407-5.732a1 1 0 0 0 2-.035l-2 .035zm2-1.97a1 1 0 1 0-2-.036l2 .035zM-.57 48.017a1 1 0 0 0 1.985.247l-1.985-.247zm2.257-1.66a1 1 0 1 0-1.975-.318l1.975.318zm-.706-6.179a1 1 0 0 0 1.93.528l-1.93-.528zm2.471-1.32a1 1 0 0 0-1.908-.597l1.908.597zm.188-6.216a1 1 0 1 0 1.833.8l-1.833-.8zm2.635-.953a1 1 0 1 0-1.803-.864l1.803.864zm1.075-6.124a1 1 0 0 0 1.7 1.052l-1.7-1.052zm2.744-.569a1 1 0 0 0-1.662-1.112l1.662 1.112zm1.934-5.909a1 1 0 1 0 1.534 1.284l-1.534-1.284zm2.797-.173a1 1 0 0 0-1.487-1.337l1.487 1.337zm2.752-5.576a1 1 0 0 0 1.337 1.487l-1.337-1.487zm2.794.224a1 1 0 0 0-1.284-1.534l1.284 1.534zm3.513-5.13a1 1 0 1 0 1.112 1.662l-1.112-1.662zm2.733.618a1 1 0 1 0-1.052-1.7l1.052 1.7zm4.208-4.579a1 1 0 1 0 .864 1.804l-.864-1.803zm2.617 1.002a1 1 0 0 0-.8-1.833l.8 1.833zm4.819-3.93a1 1 0 1 0 .597 1.91l-.597-1.91zm2.445 1.367A1 1 0 1 0 40.18.982l.528 1.93zM46.04-.287a1 1 0 1 0 .318 1.975L46.04-.287zm2.225 1.703a1 1 0 0 0-.247-1.985l.247 1.985zm5.732-2.407a1 1 0 0 0 .035 2l-.035-2zm1.97 2a1 1 0 1 0 .036-2l-.035 2zM61.983-.57a1 1 0 0 0-.247 1.985l.247-1.985zm1.66 2.257a1 1 0 1 0 .318-1.975l-.318 1.975zm6.179-.706a1 1 0 0 0-.528 1.93l.528-1.93zm1.32 2.471a1 1 0 0 0 .597-1.908l-.597 1.908zm6.216.188a1 1 0 1 0-.8 1.833l.8-1.833zm.953 2.635a1 1 0 1 0 .864-1.803l-.864 1.803zm6.124 1.075a1 1 0 0 0-1.052 1.7l1.052-1.7zm.569 2.744a1 1 0 0 0 1.112-1.662l-1.112 1.662zm5.909 1.934a1 1 0 1 0-1.284 1.534l1.284-1.534zm.173 2.797a1 1 0 0 0 1.337-1.487l-1.337 1.487zm5.576 2.752a1 1 0 0 0-1.487 1.337l1.487-1.337zm-.224 2.794a1 1 0 0 0 1.534-1.284l-1.534 1.284zm5.13 3.513a1 1 0 1 0-1.662 1.112l1.662-1.112zm-.618 2.733a1 1 0 1 0 1.7-1.052l-1.7 1.052zm4.579 4.208a1 1 0 0 0-1.804.864l1.804-.864zm-1.002 2.617a1 1 0 1 0 1.833-.8l-1.833.8zm3.929 4.819a.999.999 0 1 0-1.908.597l1.908-.597zm-1.366 2.445a.999.999 0 1 0 1.929-.528l-1.929.528zm3.198 5.333a1 1 0 0 0-1.975.318l1.975-.318zm-1.703 2.225a1 1 0 0 0 1.985-.247l-1.985.247zm2.407 5.732a1 1 0 1 0-1.999.035l1.999-.035zm-1.999 1.97a1 1 0 1 0 1.999.036l-1.999-.035zm1.577 6.015a1 1 0 0 0-1.985-.247l1.985.247zm-2.257 1.66a1.001 1.001 0 0 0 1.975.318l-1.975-.318zm.706 6.179a1 1 0 0 0-1.929-.528l1.929.528zm-2.471 1.32a1 1 0 1 0 1.908.597l-1.908-.597zm-.188 6.216a1 1 0 1 0-1.833-.8l1.833.8zm-2.635.953a1 1 0 1 0 1.804.864l-1.804-.864zm-1.075 6.124a1 1 0 1 0-1.7-1.052l1.7 1.052zm-2.744.569a1 1 0 0 0 1.662 1.112l-1.662-1.112zm-1.934 5.909a1 1 0 1 0-1.534-1.284l1.534 1.284zm-2.797.173a1 1 0 0 0 1.487 1.337l-1.487-1.337zm-2.752 5.576a1 1 0 0 0-1.337-1.487l1.337 1.487zm-2.793-.224a1 1 0 0 0 1.283 1.534l-1.284-1.534zm-3.514 5.13a1 1 0 1 0-1.112-1.662l1.112 1.662zm-2.733-.618a1 1 0 1 0 1.052 1.7l-1.052-1.7zm-4.208 4.579a1 1 0 0 0-.864-1.804l.864 1.804zm-2.617-1.002a1 1 0 1 0 .8 1.833l-.8-1.833zm-4.819 3.929a.999.999 0 1 0-.597-1.908l.597 1.908zm-2.445-1.366a.999.999 0 1 0 .528 1.929l-.528-1.929zm-5.333 3.198a1 1 0 0 0-.318-1.975l.318 1.975zm-2.225-1.703a1 1 0 0 0 .247 1.985l-.247-1.985zm-5.732 2.407a1 1 0 1 0-.035-1.999l.035 1.999zM55 109c-.325 0-.645-.003-.968-.008l-.035 1.999c.332.006.67.009 1.003.009v-2zm-6.735-.416c-.643-.08-1.273-.17-1.907-.272l-.318 1.975c.653.105 1.318.2 1.978.282l.247-1.985zm-7.558-1.495a54.392 54.392 0 0 1-1.848-.542l-.597 1.908c.631.198 1.276.387 1.917.563l.528-1.929zm-7.264-2.563a54.193 54.193 0 0 1-1.753-.802l-.864 1.804c.597.286 1.208.565 1.817.831l.8-1.833zm-6.825-3.577c-.55-.34-1.084-.685-1.62-1.044l-1.113 1.662c.55.369 1.116.733 1.68 1.082l1.053-1.7zm-6.246-4.512a53.836 53.836 0 0 1-1.457-1.263l-1.337 1.487a57.11 57.11 0 0 0 1.51 1.31l1.284-1.534zm-5.546-5.352c-.431-.48-.848-.961-1.263-1.456l-1.534 1.283a57.11 57.11 0 0 0 1.31 1.51l1.487-1.337zm-4.731-6.082a53.45 53.45 0 0 1-1.044-1.621l-1.7 1.052c.35.565.713 1.13 1.082 1.681l1.662-1.112zM6.276 78.31a53.315 53.315 0 0 1-.802-1.752l-1.833.799c.266.609.545 1.22.832 1.817l1.803-.864zm-2.823-7.17a53.113 53.113 0 0 1-.542-1.848l-1.929.528c.176.64.365 1.286.563 1.917l1.908-.597zm-1.765-7.499a53.524 53.524 0 0 1-.272-1.907l-1.985.247c.082.66.177 1.325.282 1.978l1.975-.318zm-.68-7.674A54.58 54.58 0 0 1 1 55h-2c0 .334.003.67.009 1.003l2-.035zM1 55c0-.325.003-.645.008-.968l-2-.035C-.996 54.329-1 54.667-1 55h2zm.416-6.735c.08-.643.17-1.273.272-1.907l-1.975-.318c-.105.653-.2 1.318-.282 1.978l1.985.247zm1.495-7.558c.171-.623.35-1.234.542-1.848l-1.908-.597a56.045 56.045 0 0 0-.563 1.917l1.93.528zm2.563-7.264c.259-.593.523-1.172.802-1.753l-1.803-.864a56.004 56.004 0 0 0-.832 1.817l1.833.8zm3.577-6.825c.34-.55.685-1.084 1.044-1.62l-1.662-1.113c-.369.55-.733 1.116-1.082 1.68l1.7 1.053zm4.512-6.246c.415-.496.832-.977 1.263-1.457l-1.487-1.337a56.495 56.495 0 0 0-1.31 1.51l1.534 1.284zm5.352-5.546c.48-.431.961-.848 1.457-1.263l-1.284-1.534a57.11 57.11 0 0 0-1.51 1.31l1.337 1.487zm6.082-4.731a53.45 53.45 0 0 1 1.621-1.044l-1.052-1.7c-.565.35-1.13.713-1.681 1.082l1.112 1.662zm6.693-3.819c.581-.279 1.16-.543 1.753-.802l-.8-1.833c-.609.266-1.22.545-1.817.832l.864 1.803zm7.169-2.823a53.113 53.113 0 0 1 1.848-.542L40.18.982a56.28 56.28 0 0 0-1.917.563l.597 1.908zm7.498-1.765a53.524 53.524 0 0 1 1.908-.272L48.018-.57c-.66.082-1.325.177-1.978.282l.318 1.975zm7.675-.68C54.356 1.004 54.675 1 55 1v-2c-.334 0-.67.003-1.003.009l.035 2zM55 1c.325 0 .645.003.968.008l.035-2C55.671-.996 55.333-1 55-1v2zm6.735.416c.643.08 1.273.17 1.907.272l.318-1.975c-.653-.105-1.318-.2-1.978-.282l-.247 1.985zm7.558 1.495c.623.171 1.234.35 1.848.542l.597-1.908a56.045 56.045 0 0 0-1.917-.563l-.528 1.93zm7.264 2.563c.593.259 1.172.523 1.753.802l.864-1.803a56.004 56.004 0 0 0-1.817-.832l-.8 1.833zm6.825 3.577c.55.34 1.084.685 1.62 1.044l1.113-1.662a56.538 56.538 0 0 0-1.68-1.082l-1.053 1.7zm6.246 4.512c.496.415.977.832 1.457 1.263l1.337-1.487a56.495 56.495 0 0 0-1.51-1.31l-1.284 1.534zm5.546 5.352c.431.48.848.961 1.263 1.457l1.534-1.284a56.495 56.495 0 0 0-1.31-1.51l-1.487 1.337zm4.731 6.082a55.15 55.15 0 0 1 1.044 1.621l1.7-1.052a55.093 55.093 0 0 0-1.082-1.681l-1.662 1.112zm3.819 6.693c.279.581.543 1.16.802 1.753l1.833-.8a57.762 57.762 0 0 0-.831-1.817l-1.804.864zm2.823 7.169c.192.614.371 1.225.542 1.848l1.929-.528a56.035 56.035 0 0 0-.563-1.917l-1.908.597zm1.765 7.498c.102.636.192 1.265.272 1.908l1.985-.247a55.87 55.87 0 0 0-.282-1.978l-1.975.318zm.68 7.675c.005.324.008.643.008.968h2c0-.334-.003-.67-.009-1.003l-1.999.035zM109 55c0 .325-.003.645-.008.968l1.999.035c.006-.332.009-.67.009-1.003h-2zm-.416 6.735c-.08.643-.17 1.273-.272 1.907l1.975.318c.105-.653.2-1.318.282-1.978l-1.985-.247zm-1.495 7.558c-.171.623-.35 1.234-.542 1.848l1.908.597c.198-.631.387-1.276.563-1.917l-1.929-.528zm-2.563 7.264a54.193 54.193 0 0 1-.802 1.753l1.804.864c.286-.597.565-1.208.831-1.817l-1.833-.8zm-3.577 6.825c-.34.55-.685 1.084-1.044 1.62l1.662 1.113c.369-.55.733-1.116 1.082-1.68l-1.7-1.053zm-4.512 6.246c-.415.496-.832.977-1.263 1.457l1.487 1.337a57.11 57.11 0 0 0 1.31-1.51l-1.534-1.284zm-5.352 5.546c-.48.431-.961.848-1.456 1.263l1.283 1.534a56.495 56.495 0 0 0 1.51-1.31l-1.337-1.487zm-6.082 4.731a55.15 55.15 0 0 1-1.621 1.044l1.052 1.7c.565-.349 1.13-.713 1.681-1.082l-1.112-1.662zm-6.693 3.819a54.37 54.37 0 0 1-1.752.802l.799 1.833c.609-.266 1.22-.545 1.817-.831l-.864-1.804zm-7.169 2.823c-.614.192-1.225.371-1.848.542l.528 1.929a56.28 56.28 0 0 0 1.917-.563l-.597-1.908zm-7.499 1.765c-.635.102-1.264.192-1.907.272l.247 1.985a55.87 55.87 0 0 0 1.978-.282l-.318-1.975zm-7.674.68c-.324.005-.643.008-.968.008v2c.334 0 .67-.003 1.003-.009l-.035-1.999z"/><path id="b" d="M3.36.119A1 1 0 1 0 1.376-.12L3.36.12zm334.42 92.265a1 1 0 1 0-1.965-.37l1.965.37zM1.277.802a1 1 0 0 0 1.99.196L1.278.802zM2.82 7.047a1 1 0 1 0-1.997-.11l1.997.11zM.723 8.94a1 1 0 0 0 1.998.089L.723 8.941zm1.818 6.14a1 1 0 1 0-2-.031l2 .03zM.519 17.11a1 1 0 0 0 2 .013l-2-.013zm2.04 6.037a1 1 0 0 0-2 .039l2-.04zm-1.95 2.05a1 1 0 1 0 1.998-.056l-1.999.056zm2.247 5.983a1 1 0 1 0-1.997.108l1.997-.108zM.978 33.345a1 1 0 0 0 1.997-.125l-1.997.125zM3.43 39.23a1 1 0 0 0-1.992.176l1.992-.176zm-1.8 2.24a1 1 0 0 0 1.99-.195l-1.99.194zm2.654 5.78a1 1 0 1 0-1.985.248l1.985-.247zM2.56 49.523a1 1 0 0 0 1.983-.265l-1.983.265zm2.865 5.704a1 1 0 0 0-1.974.32l1.974-.32zm-1.64 2.324a1 1 0 0 0 1.971-.339l-1.97.339zm3.08 5.596a1 1 0 1 0-1.96.396l1.96-.396zm-1.549 2.386a1 1 0 0 0 1.957-.416l-1.957.416zm3.3 5.466a1 1 0 0 0-1.943.475l1.943-.475zM7.167 73.45a1 1 0 0 0 1.937-.496l-1.937.496zm3.526 5.315a1 1 0 1 0-1.92.559l1.92-.559zm-1.338 2.52a1 1 0 0 0 1.914-.58l-1.914.58zm3.758 5.145a1 1 0 0 0-1.892.647l1.892-.647zm-1.219 2.58a1 1 0 1 0 1.885-.669l-1.885.67zm4 4.96a1 1 0 1 0-1.86.738l1.86-.738zM14.8 96.603a1 1 0 0 0 1.849-.761l-1.85.761zm4.248 4.756a1 1 0 0 0-1.818.834l1.818-.834zm-.955 2.682a1.001 1.001 0 0 0 1.806-.858l-1.806.858zm4.5 4.525a1 1 0 1 0-1.769.932l1.77-.932zm-.806 2.727a1 1 0 1 0 1.756-.958l-1.756.958zm4.755 4.264a1 1 0 0 0-1.712 1.035l1.712-1.035zm-.648 2.767a1 1 0 1 0 1.696-1.06l-1.696 1.06zm5.007 3.976a1 1 0 0 0-1.645 1.137l1.645-1.137zm-.478 2.797a1 1 0 0 0 1.627-1.163l-1.627 1.163zm5.253 3.66a1 1 0 0 0-1.568 1.241l1.568-1.241zm-.3 2.817a1 1 0 1 0 1.547-1.266l-1.548 1.266zm5.47 3.296a1 1 0 1 0-1.482 1.342l1.483-1.342zm-.096 2.849a1 1 0 0 0 1.46-1.367l-1.46 1.367zm5.665 2.902a1 1 0 0 0-1.39 1.439l1.39-1.439zm.1 2.851a1 1 0 0 0 1.363-1.463l-1.364 1.463zm5.85 2.509a1 1 0 1 0-1.287 1.531l1.287-1.531zm.288 2.831a1 1 0 0 0 1.26-1.553l-1.26 1.553zm6.026 2.114a1 1 0 0 0-1.178 1.616l1.178-1.616zm.47 2.796a1 1 0 1 0 1.151-1.635l-1.15 1.635zm6.191 1.72a1 1 0 0 0-1.065 1.693l1.066-1.693zm.642 2.748a1 1 0 0 0 1.037-1.71l-1.037 1.71zm6.25 1.279a1 1 0 1 0-.951 1.759l.952-1.759zm.875 2.728a1 1 0 0 0 .923-1.774l-.923 1.774zm6.278.851a1 1 0 1 0-.838 1.816l.838-1.816zm1.024 2.657a1 1 0 1 0 .81-1.828l-.81 1.828zm6.382.488a1 1 0 1 0-.725 1.863l.725-1.863zm1.154 2.579a1 1 0 1 0 .698-1.874l-.698 1.874zm6.415.116a1 1 0 0 0-.617 1.903l.617-1.903zm1.356 2.527a1 1 0 0 0 .59-1.911l-.59 1.911zm6.3-.273a1 1 0 0 0-.514 1.933l.514-1.933zm1.465 2.445a1 1 0 0 0 .488-1.94l-.488 1.94zm6.395-.572a1 1 0 0 0-.414 1.957l.414-1.957zm1.541 2.359a1 1 0 0 0 .391-1.962l-.391 1.962zm6.326-.887a1 1 0 1 0-.322 1.973l.322-1.973zm1.725 2.295a.999.999 0 1 0 .299-1.977l-.299 1.977zm6.222-1.179a1 1 0 1 0-.236 1.986l.236-1.986zm1.767 2.213a1 1 0 0 0 .215-1.989l-.215 1.989zm6.289-1.427a.999.999 0 1 0-.154 1.994l.154-1.994zm1.918 2.143a1 1 0 1 0 .134-1.995l-.134 1.995zm6.042-1.68a1 1 0 1 0-.079 1.998l.079-1.998zm1.946 2.069a1 1 0 1 0 .062-1.999l-.062 1.999zm6.198-1.892a1 1 0 0 0-.008 2l.008-2zm2.08 2.001a1 1 0 1 0-.004-2l.004 2zm6.131-2.051a1 1 0 0 0 .03 2l-.03-2zm2.053 1.966a1 1 0 1 0-.038-1.999l.038 1.999zm5.915-2.15a1 1 0 0 0 .064 1.999l-.064-1.999zm2.124 1.929a1 1 0 0 0-.073-1.999l.073 1.999zm6.034-2.263a1 1 0 1 0 .101 1.998l-.101-1.998zm2.113 1.891a1 1 0 1 0-.11-1.997l.11 1.997zm5.87-2.37a1.001 1.001 0 0 0 .139 1.996l-.139-1.996zm2.2 1.847a1.001 1.001 0 0 0-.149-1.995l.149 1.995zm5.895-2.495a1 1 0 1 0 .181 1.992l-.181-1.992zm2.17 1.806a1 1 0 0 0-.191-1.991l.191 1.991zm5.844-2.621a1 1 0 1 0 .224 1.987l-.224-1.987zm2.255 1.752a1 1 0 1 0-.236-1.986l.236 1.986zm5.705-2.745a1 1 0 1 0 .271 1.982l-.271-1.982zm2.265 1.703a1 1 0 0 0-.282-1.98l.282 1.98zm5.763-2.903a1.001 1.001 0 0 0 .321 1.974l-.321-1.974zm2.306 1.645a1 1 0 0 0-.334-1.972l.334 1.972zm5.604-3.039a1 1 0 0 0 .373 1.965l-.373-1.965zm2.387 1.575a1 1 0 0 0-.387-1.963l.387 1.963zm5.473-3.186a1 1 0 1 0 .43 1.953l-.43-1.953zm2.416 1.508a1 1 0 1 0-.445-1.95l.445 1.95zm5.471-3.372a1 1 0 1 0 .491 1.939l-.491-1.939zm2.427 1.441a1 1 0 1 0-.506-1.935l.506 1.935zm5.35-3.546a.999.999 0 1 0 .555 1.921l-.555-1.921zm2.5 1.35a1 1 0 1 0-.571-1.916l.571 1.916zm5.171-3.714a1 1 0 1 0 .624 1.9l-.624-1.9zm2.57 1.251a1 1 0 0 0-.641-1.894l.641 1.894zm4.996-3.895a1 1 0 0 0 .697 1.875l-.697-1.875zm2.635 1.143a1 1 0 1 0-.716-1.867l.716 1.867zm4.846-4.1a1 1 0 1 0 .774 1.844l-.774-1.844zm2.666 1.037a.999.999 0 1 0-.795-1.835l.795 1.835zm4.688-4.321a1 1 0 1 0 .858 1.806l-.858-1.806zm2.69.924a1.001 1.001 0 0 0-.879-1.797l.879 1.797zm4.487-4.546a1 1 0 0 0 .945 1.763l-.945-1.763zm2.731.791a1 1 0 1 0-.968-1.751l.968 1.751zm4.24-4.766a1 1 0 1 0 1.037 1.71l-1.037-1.71zm2.784.633a1 1 0 1 0-1.061-1.695l1.061 1.695zm3.952-4.985a1 1 0 0 0 1.134 1.648l-1.134-1.648zm2.835.459a1 1 0 0 0-1.159-1.631l1.159 1.631zm3.657-5.225a1 1 0 1 0 1.234 1.574l-1.234-1.574zm2.837.296a1 1 0 0 0-1.259-1.554l1.259 1.554zm3.315-5.457a1 1 0 0 0 1.337 1.488l-1.337-1.488zm2.824.129a1 1 0 1 0-1.363-1.464l1.363 1.464zm2.919-5.669a1 1 0 0 0 1.44 1.388l-1.44-1.388zm2.861-.114a1.001 1.001 0 0 0-1.467-1.36l1.467 1.36zm2.491-5.886a1 1 0 0 0 1.544 1.271l-1.544-1.271zm2.809-.298a1 1 0 1 0-1.569-1.24l1.569 1.24zm2.007-6.074a1 1 0 1 0 1.645 1.136l-1.645-1.136zm2.793-.565a1 1 0 0 0-1.671-1.1l1.671 1.1zm1.446-6.213a.998.998 0 1 0 1.743.979l-1.743-.979zm2.723-.817a1.001 1.001 0 0 0-1.768-.935l1.768.935zm.82-6.337a1 1 0 1 0 1.838.787l-1.838-.787zm2.622-1.123a1 1 0 1 0-1.861-.73l1.861.73zm-.015-6.326a.999.999 0 1 0 1.938.493l-1.938-.493zM2.368 0l-.993-.119v.005l-.002.012a19.624 19.624 0 0 0-.025.222c-.017.152-.041.383-.07.682l1.99.196a63.926 63.926 0 0 1 .087-.827l.004-.04.001-.01V.119L2.369 0zM.822 6.937c-.035.63-.068 1.3-.1 2.004l1.999.089c.03-.699.064-1.359.098-1.983l-1.997-.11zm-.28 8.113c-.011.668-.019 1.357-.023 2.06l2 .014c.004-.7.012-1.38.022-2.043l-2-.031zm.018 8.137c.013.659.029 1.33.048 2.011l2-.056c-.02-.676-.036-1.34-.049-1.994l-2 .039zm.299 8.102c.036.677.076 1.364.12 2.056l1.996-.125a227.72 227.72 0 0 1-.12-2.039L.86 31.29zm.578 8.117c.06.681.124 1.37.192 2.063l1.99-.194a230.23 230.23 0 0 1-.19-2.045l-1.992.176zm.861 8.092c.083.67.17 1.347.261 2.025l1.983-.265a277.34 277.34 0 0 1-.26-2.007l-1.984.247zm1.152 8.05c.107.663.22 1.333.334 2.003l1.971-.339a190.86 190.86 0 0 1-.33-1.985l-1.975.32zm1.453 7.995c.134.66.271 1.325.412 1.99l1.957-.416c-.14-.66-.276-1.314-.408-1.97l-1.96.396zm1.77 7.93c.16.658.325 1.318.494 1.978l1.937-.496a189.6 189.6 0 0 1-.49-1.956l-1.942.475zm2.1 7.852c.189.652.384 1.308.582 1.961l1.914-.58a176.97 176.97 0 0 1-.576-1.94l-1.92.559zm2.448 7.753c.22.643.445 1.29.673 1.933l1.885-.669c-.227-.638-.448-1.273-.666-1.91l-1.892.646zm2.814 7.631c.25.63.506 1.264.766 1.894l1.849-.761c-.257-.624-.508-1.246-.756-1.87l-1.86.737zm3.196 7.484c.282.616.571 1.234.863 1.848l1.806-.858a149.94 149.94 0 0 1-.85-1.824l-1.819.834zm3.594 7.305c.316.599.638 1.199.963 1.795l1.756-.958c-.322-.589-.637-1.177-.95-1.769l-1.769.932zm4.006 7.094c.349.578.705 1.158 1.064 1.732l1.696-1.06a137.07 137.07 0 0 1-1.049-1.707l-1.711 1.035zm4.426 6.845c.383.554.773 1.11 1.167 1.66l1.627-1.163c-.39-.544-.77-1.086-1.15-1.634l-1.644 1.137zm4.852 6.561c.416.527.84 1.054 1.267 1.576l1.549-1.266c-.422-.515-.836-1.03-1.248-1.551l-1.568 1.241zm5.256 6.214c.456.504.92 1.008 1.386 1.507l1.46-1.367c-.46-.492-.913-.984-1.363-1.482l-1.483 1.342zm5.662 5.848c.49.473.988.945 1.488 1.412l1.364-1.463c-.494-.461-.98-.921-1.463-1.388l-1.39 1.439zm6.052 5.452c.519.436 1.046.871 1.575 1.3l1.26-1.553c-.523-.424-1.036-.848-1.548-1.278l-1.287 1.531zm6.423 5.03c.543.396 1.095.791 1.648 1.18l1.151-1.635c-.546-.385-1.084-.77-1.62-1.161l-1.179 1.616zm6.774 4.593c.563.354 1.134.707 1.707 1.055l1.037-1.71a117.48 117.48 0 0 1-1.678-1.038l-1.066 1.693zm7.006 4.093c.602.326 1.214.65 1.826.969l.923-1.774c-.605-.315-1.202-.632-1.797-.954l-.952 1.759zm7.266 3.636c.614.283 1.237.565 1.862.841l.81-1.828c-.618-.274-1.227-.549-1.834-.829l-.838 1.816zm7.519 3.192c.62.242 1.25.482 1.879.716l.698-1.874c-.623-.232-1.238-.466-1.852-.705l-.725 1.863zm7.677 2.735c.652.211 1.312.42 1.973.624l.59-1.911c-.655-.202-1.3-.407-1.946-.616l-.617 1.903zm7.759 2.284c.654.174 1.316.345 1.979.512l.488-1.94c-.656-.165-1.305-.333-1.953-.505l-.514 1.933zm7.96 1.897c.647.137 1.301.271 1.955.402l.391-1.962a160.8 160.8 0 0 1-1.932-.397l-.414 1.957zm7.959 1.488c.677.111 1.362.219 2.047.322l.299-1.977c-.679-.103-1.352-.209-2.024-.318l-.322 1.973zm8.033 1.129c.664.079 1.333.154 2.003.227l.215-1.989c-.665-.072-1.324-.146-1.982-.224l-.236 1.986zm8.138.794c.686.053 1.379.103 2.072.149l.134-1.995a256.96 256.96 0 0 1-2.052-.148l-.154 1.994zm8.035.467c.671.027 1.348.051 2.025.071l.062-1.999c-.673-.02-1.341-.044-2.008-.07l-.079 1.998zm8.215.179l1.048.002v-2c-.348 0-.693 0-1.04-.002l-.008 2zm1.048.002l1.04-.001-.004-2-1.036.001v2zm7.201-.052c.676-.01 1.351-.021 2.023-.034l-.038-1.999c-.669.012-1.34.023-2.015.033l.03 2zm8.002-.185c.689-.022 1.376-.045 2.06-.07l-.073-1.999c-.681.025-1.364.048-2.051.07l.064 1.999zm8.195-.335c.673-.034 1.344-.07 2.012-.107l-.11-1.997c-.665.037-1.332.072-2.003.106l.101 1.998zm8.021-.481c.69-.048 1.378-.098 2.061-.149l-.149-1.995c-.681.051-1.364.101-2.051.148l.139 1.996zm8.137-.652c.665-.061 1.329-.123 1.989-.186l-.191-1.991c-.657.063-1.316.125-1.979.185l.181 1.992zm8.057-.82c.68-.077 1.358-.155 2.031-.235l-.236-1.986a493.1 493.1 0 0 1-2.019.234l.224 1.987zm8.007-.998c.667-.092 1.333-.185 1.994-.279l-.282-1.98c-.659.094-1.319.186-1.983.277l.271 1.982zm8.078-1.208c.665-.108 1.327-.218 1.985-.329l-.334-1.972c-.654.111-1.311.22-1.972.327l.321 1.974zm7.962-1.403c.675-.128 1.347-.259 2.014-.39l-.387-1.963c-.664.132-1.329.261-2 .388l.373 1.965zm7.917-1.623c.665-.146 1.329-.295 1.986-.445l-.445-1.95c-.653.149-1.309.296-1.971.442l.43 1.953zm7.948-1.878c.649-.164 1.296-.331 1.936-.498l-.506-1.935c-.637.166-1.276.331-1.921.494l.491 1.939zm7.841-2.123c.652-.188 1.302-.379 1.945-.571l-.571-1.916c-.64.19-1.281.379-1.929.566l.555 1.921zm7.74-2.385c.653-.214 1.303-.431 1.946-.649l-.641-1.894c-.639.216-1.28.43-1.929.643l.624 1.9zm7.639-2.669a187.52 187.52 0 0 0 1.938-.732l-.716-1.867c-.635.243-1.273.484-1.919.724l.697 1.875zm7.558-2.988c.636-.267 1.268-.536 1.892-.807l-.795-1.835c-.619.268-1.241.534-1.871.798l.774 1.844zm7.438-3.322c.616-.292 1.228-.587 1.832-.882l-.879-1.797c-.598.293-1.2.583-1.811.873l.858 1.806zm7.264-3.665c.601-.322 1.198-.647 1.786-.972l-.968-1.751c-.582.322-1.167.641-1.763.96l.945 1.763zm7.063-4.028a134.67 134.67 0 0 0 1.747-1.077l-1.061-1.695c-.568.356-1.141.708-1.723 1.062l1.037 1.71zm6.833-4.414c.574-.395 1.143-.793 1.701-1.189l-1.159-1.631c-.551.393-1.108.782-1.676 1.172l1.134 1.648zm6.592-4.84c.542-.425 1.078-.852 1.603-1.278l-1.259-1.554c-.519.421-1.043.839-1.578 1.258l1.234 1.574zm6.255-5.247c.504-.452 1.001-.907 1.487-1.359l-1.363-1.464c-.479.445-.964.889-1.461 1.335l1.337 1.488zm5.846-5.64c.483-.501.959-1.004 1.421-1.502l-1.467-1.36c-.455.491-.918.98-1.394 1.474l1.44 1.388zm5.456-6.117c.432-.525.856-1.051 1.265-1.569l-1.569-1.24c-.404.511-.815 1.021-1.24 1.538l1.544 1.271zm4.917-6.507c.395-.572.78-1.142 1.148-1.701l-1.671-1.1c-.362.55-.734 1.102-1.122 1.665l1.645 1.136zm4.337-6.935c.343-.609.671-1.212.98-1.796l-1.768-.935c-.303.573-.62 1.154-.955 1.752l1.743.979zm3.638-7.346a62.9 62.9 0 0 0 .784-1.91l-1.861-.73a66.288 66.288 0 0 1-.761 1.853l1.838.787zm2.707-7.743a26.257 26.257 0 0 0 .225-.965l.011-.055a.139.139 0 0 1 .003-.016l.001-.004v-.003l-.983-.185-.982-.184v-.001.001l-.002.008-.008.04-.037.172c-.035.16-.088.39-.166.699l1.938.493z"/><path id="c" d="M0-1a1 1 0 1 0 0 2v-2zm8.435 1h1a1 1 0 0 0-1-1v1zm-1 8.435a1 1 0 1 0 2 0h-2zM0 1h8.435v-2H0v2zm7.435-1v8.435h2V0h-2z"/></defs></svg>