<svg width="113" height="50" viewBox="0 0 113 50" xmlns="http://www.w3.org/2000/svg" xmlns:xlink="http://www.w3.org/1999/xlink"><title>Combined Shape</title><desc>Created using Figma</desc><use xlink:href="#a" fill="#C6DAED"/><defs><path id="a" fill-rule="evenodd" d="M27.979 0l9.062 5.686v21.766l-9.062 3.407V0zM7.703 34.135l.034-8.74-7.703 3.407v8.81l10.833 6.57 6.953-3.975v9.57l19.257-11.072v-9.45L17.858 40.182 7.703 34.135zM0 27.155V17.056l17.892-10.95v9.977L0 27.155zM51.155 9.872v8.607h.208c.47 0 1.041.008 1.528.015.361.005.676.01.869.01 3.264 0 4.903-1.992 4.903-4.403 0-2.286-1.382-4.266-4.806-4.266-.297 0-.857.01-1.388.02-.477.009-.929.017-1.143.017h-.17zm2.678 1.807c-.208 0-.477 0-.722.037v4.918c.257.025.428.025.71.025 1.687 0 2.763-.922 2.763-2.557 0-1.587-1.162-2.423-2.751-2.423zm8.498 6.8h-1.956V9.872h1.956v8.607zm5.845-3.062h1.822v.935c-.196.184-.832.43-1.346.43-1.528 0-2.53-1.02-2.53-2.607 0-1.77 1.088-2.606 2.494-2.606.66 0 1.406.27 1.748.639l.82-1.586c-.698-.553-1.529-.898-2.8-.898-2.69 0-4.341 1.98-4.341 4.451 0 2.68 1.65 4.451 4.585 4.451 1.064 0 2.445-.455 3.204-1.217v-3.836h-3.656v1.844zm7.446 3.062h-1.956V9.872h1.956v8.607zm1.345-6.763V9.872h7.092v1.844H81.49v6.763h-1.957v-6.763h-2.567zm10.112-1.844l-3.558 8.607h1.968l.71-1.808h3.386l.709 1.808h2.09l-3.557-8.607H87.08zm.82 2.52l-.966 2.435h1.92l-.955-2.435zm11.029 6.087h-5.442V9.872h1.956v6.762h3.486v1.845zM51.155 40.553h3.934v-10.95l4.768 6.674h.566l4.794-6.749v11.025h3.932V23.25h-3.712l-5.014 7.293-5.31-7.293h-3.958v17.304zm26.599 0H73.82V23.25h3.934v17.304zm19.665 0V23.25H93.73v10.432L85.57 23.25h-3.147v17.304h3.687V30.171l8.161 10.382h3.147zm14.872 0h-10.447V23.25h10.201v3.708h-6.268v3.04h5.531v3.709h-5.531v3.14h6.514v3.707z"/></defs></svg>