<svg xmlns="http://www.w3.org/2000/svg" width="91" height="40" viewBox="0 0 91 40"><path fill="#c6daee" d="M23.42 0l7.27 4.57v17.49l-7.27 2.74zM9.71 35.5l-8.68-5.28v-7.08l6.17-2.73-.03 7.02 8.13 4.85 15.43-8.75v7.57l-15.46 8.87v-7.65zM.98 21.8v-8.1l14.38-8.78v8zM42 14.85V7.93h.14l2.03-.03c2.74 0 3.85 1.59 3.85 3.43 0 1.94-1.32 3.54-3.93 3.54l-1.92-.02zm2.15-5.46c-.17 0-.39 0-.58.02v3.96c.2.02.34.02.57.02 1.35 0 2.21-.74 2.21-2.06 0-1.27-.93-1.94-2.2-1.94zm5.24-1.46h1.57v6.92h-1.57zm6.25 2.98h2.93v3.08c-.61.61-1.71.98-2.57.98-2.35 0-3.67-1.42-3.67-3.58 0-1.98 1.32-3.58 3.48-3.58 1.02 0 1.68.28 2.24.73l-.65 1.27a2.1 2.1 0 0 0-1.41-.51c-1.12 0-1.99.67-1.99 2.09 0 1.28.8 2.1 2.02 2.1.42 0 .93-.2 1.08-.35v-.75h-1.46zm4.4-2.98h1.57v6.92h-1.57zm2.65 1.48V7.93h5.68v1.48h-2.06v5.44h-1.56V9.41zm5.25 5.44l2.85-6.92h1.4l2.86 6.92h-1.68l-.57-1.45h-2.71l-.57 1.45zm3.51-4.89l-.78 1.95h1.54zm4.48-2.03h1.57v5.44h2.79v1.48h-4.36zM42 18.68h3.17l4.26 5.86 4.02-5.86h2.97v13.91h-3.15v-8.86l-3.84 5.42h-.46l-3.82-5.36v8.8H42zm18.17 0h3.15v13.91h-3.15zm16.39 13.91l-6.54-8.35v8.35h-2.96V18.68h2.52l6.54 8.39v-8.39h2.96v13.91zm6.07-13.91h8.17v2.98h-5.02v2.45h4.43v2.98h-4.43v2.52H91v2.98h-8.37z"/></svg>