<svg xmlns="http://www.w3.org/2000/svg" width="602" height="602" viewBox="0 0 602 602"><defs><clipPath id="a"><path fill="#fff" d="M543 1372v-354h354v354zm177-1c97.2 0 176-78.8 176-176s-78.8-176-176-176-176 78.8-176 176 78.8 176 176 176z"/></clipPath><clipPath id="b"><path fill="#fff" d="M485 1430V960h470v470zm235-1c129.23 0 234-104.77 234-234 0-129.23-104.77-234-234-234-129.23 0-234 104.77-234 234 0 129.23 104.77 234 234 234z"/></clipPath><clipPath id="c"><path fill="#fff" d="M420 1495V893h602v602zm301-1c165.69 0 300-134.31 300-300S886.69 894 721 894s-300 134.31-300 300 134.31 300 300 300z"/></clipPath></defs><path fill="none" stroke="#497799" stroke-miterlimit="50" stroke-width="2" d="M544 1195c0-97.2 78.8-176 176-176s176 78.8 176 176-78.8 176-176 176-176-78.8-176-176z" clip-path="url(&quot;#a&quot;)" transform="translate(-420 -893)"/><path fill="none" stroke="#444e5e" stroke-miterlimit="50" stroke-width="2" d="M486 1195c0-129.23 104.77-234 234-234 129.23 0 234 104.77 234 234 0 129.23-104.77 234-234 234-129.23 0-234-104.77-234-234z" clip-path="url(&quot;#b&quot;)" transform="translate(-420 -893)"/><path fill="none" stroke="#e7ecf2" stroke-miterlimit="50" stroke-width="2" d="M421 1194c0-165.69 134.31-300 300-300s300 134.31 300 300-134.31 300-300 300-300-134.31-300-300z" clip-path="url(&quot;#c&quot;)" transform="translate(-420 -893)"/></svg>