<svg width="1440" height="1287" viewBox="0 0 1440 1287" xmlns="http://www.w3.org/2000/svg" xmlns:xlink="http://www.w3.org/1999/xlink"><title>back</title><desc>Created using Figma</desc><g transform="translate(-1612 179)"><mask id="b"><use xlink:href="#a" transform="translate(1612 -179)" fill="#FFF"/></mask><g mask="url(#b)" filter="url(#c)"><use xlink:href="#a" transform="translate(1612 -179)" fill="url(#d)"/></g><g opacity=".503" mask="url(#b)" filter="url(#e)"><use xlink:href="#f" transform="translate(1593 -115)" fill="url(#g)" fill-opacity=".6"/><mask id="h"><path fill="#fff" transform="translate(1593 -115)" d="M-5-5h1487v1191H-5z"/><use xlink:href="#f" transform="translate(1593 -115)"/></mask><g mask="url(#h)"><use xlink:href="#i" transform="translate(1593 -115)" fill="url(#j)"/></g></g><g mask="url(#b)"><g opacity=".3" fill="#FFF"><use xlink:href="#k" transform="translate(2411 -177.57)" opacity=".3"/><use xlink:href="#k" transform="translate(2572 -177.57)" opacity=".3"/><use xlink:href="#k" transform="translate(2731 -177.833)" opacity=".3"/><use xlink:href="#k" transform="translate(2891 -177.57)" opacity=".3"/><use xlink:href="#k" transform="translate(3050 -177.57)" opacity=".3"/></g><g opacity=".3" fill="#FFF"><use xlink:href="#k" transform="translate(1614 -177.57)" opacity=".3"/><use xlink:href="#k" transform="translate(1773 -177.57)" opacity=".3"/><use xlink:href="#k" transform="translate(1933 -177.57)" opacity=".3"/><use xlink:href="#k" transform="translate(2092 -177.57)" opacity=".3"/><use xlink:href="#k" transform="translate(2252 -177.57)" opacity=".3"/></g><use xlink:href="#l" transform="translate(2406 335)" fill="#139BFE"/><use xlink:href="#l" transform="translate(2886 171.167)" fill="#139BFE"/><use xlink:href="#l" transform="translate(2247 -65.833)" fill="#139BFE"/><use xlink:href="#l" transform="translate(1928 16.167)" fill="#139BFE"/></g></g><defs><filter id="c" filterUnits="userSpaceOnUse" x="1612" y="-179" width="1440" height="953" color-interpolation-filters="sRGB"><feFlood flood-opacity="0" result="BackgroundImageFix"/><feBlend in="SourceGraphic" in2="BackgroundImageFix" result="shape"/><feColorMatrix in="SourceAlpha" values="0 0 0 0 0 0 0 0 0 0 0 0 0 0 0 0 0 0 255 0" result="hardAlpha"/><feOffset dy="-40"/><feComposite in2="hardAlpha" operator="arithmetic" k2="-1" k3="1"/><feColorMatrix values="0 0 0 0 0.0196078 0 0 0 0 0.160784 0 0 0 0 0.423529 0 0 0 0.19585 0"/><feBlend in2="shape" result="effect1_innerShadow"/></filter><filter id="e" filterUnits="userSpaceOnUse" x="1612" y="-177" width="1440" height="951" color-interpolation-filters="sRGB"><feFlood flood-opacity="0" result="BackgroundImageFix"/><feColorMatrix in="SourceAlpha" values="0 0 0 0 0 0 0 0 0 0 0 0 0 0 0 0 0 0 255 0"/><feOffset dy="-10"/><feGaussianBlur stdDeviation="23.5"/><feColorMatrix values="0 0 0 0 0 0 0 0 0 0 0 0 0 0 0 0 0 0 0.0255038 0"/><feBlend in2="BackgroundImageFix" result="effect1_dropShadow"/><feBlend in="SourceGraphic" in2="effect1_dropShadow" result="shape"/><feColorMatrix in="SourceAlpha" values="0 0 0 0 0 0 0 0 0 0 0 0 0 0 0 0 0 0 255 0" result="hardAlpha"/><feOffset dy="8"/><feGaussianBlur stdDeviation="11"/><feComposite in2="hardAlpha" operator="arithmetic" k2="-1" k3="1"/><feColorMatrix values="0 0 0 0 0.0745098 0 0 0 0 0.607843 0 0 0 0 0.996078 0 0 0 0.249151 0"/><feBlend in2="shape" result="effect2_innerShadow"/></filter><linearGradient id="d" x2="1" gradientUnits="userSpaceOnUse" gradientTransform="matrix(-456.41 -929.81 1404.96 -302.055 535.477 953)"><stop offset="0" stop-color="#0072ED"/><stop offset="1" stop-color="#149DFF"/></linearGradient><linearGradient id="g" x2="1" gradientUnits="userSpaceOnUse" gradientTransform="matrix(-147.218 790.264 -987.982 -117.756 885.126 373.131)"><stop offset="0" stop-color="#1299FD"/><stop offset="1" stop-color="#0074EE"/></linearGradient><linearGradient id="j" x2="1" gradientUnits="userSpaceOnUse" gradientTransform="matrix(-1279.48 833.389 -1041.9 -1023.43 1381.18 0)"><stop offset="0" stop-color="#139BFE"/><stop offset="1" stop-color="#0A8AF6"/></linearGradient><path id="a" fill-rule="evenodd" d="M1440 0H0v703l720 250 720-250V0z"/><path id="f" fill-rule="evenodd" d="M6.857 527.503L99.68 434.68c11.716-11.716 30.711-11.716 42.426 0l30.529 30.529c11.716 11.715 30.711 11.715 42.426 0l149.97-149.97c23.432-23.431 61.421-23.431 84.853 0l200.822 200.822c23.432 23.432 61.421 23.432 84.853 0l168.078-168.078c11.716-11.716 30.711-11.716 42.426 0l35.487 35.487c11.716 11.715 30.71 11.715 42.43 0l206.4-206.403c7.81-7.81 20.47-7.81 28.28 0l6.61 6.603c7.81 7.81 20.47 7.81 28.28 0L1477.22 0v1181.59H0l6.857-654.087z"/><path id="i" d="M6.857 527.503l-2.829-2.828a4 4 0 0 0-1.171 2.786l4 .042zm896.78-179.52l2.828 2.829-2.828-2.829zm77.913 35.487l2.828-2.829-2.828 2.829zm248.83-206.403l-2.83-2.828 2.83 2.828zm34.89 6.603l-2.83 2.828 2.83-2.828zM1477.22 0h4a4.002 4.002 0 0 0-6.83-2.828L1477.22 0zm0 1181.59v4c2.21 0 4-1.79 4-4h-4zM0 1181.59l-4-.04a3.99 3.99 0 0 0 4 4.04v-4zm735.559-665.529l-2.829-2.828 2.829 2.828zm210.504-168.078l-2.828 2.829 2.828-2.829zm77.917 35.487l2.82 2.828-2.82-2.828zm234.68-206.403l2.83-2.828-2.83 2.828zm34.89 6.603l2.83 2.828-2.83-2.828zM9.685 530.332l92.823-92.823-5.656-5.657-92.824 92.823 5.657 5.657zm129.593-92.823l30.529 30.528 5.656-5.657-30.528-30.528-5.657 5.657zm78.612 30.528l149.97-149.97-5.657-5.656-149.97 149.969 5.657 5.657zm229.165-149.97L647.878 518.89l5.657-5.657-200.823-200.822-5.657 5.656zM738.387 518.89l168.078-168.078-5.656-5.657L732.73 513.233l5.657 5.657zm204.848-168.078l35.486 35.486 5.657-5.657-35.486-35.486-5.657 5.657zm83.565 35.486l206.41-206.402-5.66-5.657-206.4 206.402 5.65 5.657zm229.03-206.402l6.61 6.602 5.65-5.657-6.6-6.602-5.66 5.657zm40.55 6.602l183.67-183.67-5.66-5.656-183.67 183.669 5.66 5.657zM1473.22 0v1181.59h8V0h-8zm4 1177.59H0v8h1477.22v-8zM4 1181.64l6.857-654.095-8-.084L-4 1181.55l8 .09zm98.508-744.131c10.154-10.154 26.616-10.154 36.77 0l5.657-5.657c-13.278-13.278-34.806-13.278-48.083 0l5.656 5.657zm67.299 30.528c13.277 13.278 34.805 13.278 48.083 0l-5.657-5.657c-10.154 10.154-26.616 10.154-36.77 0l-5.656 5.657zm198.053-149.97c21.869-21.869 57.326-21.869 79.195 0l5.657-5.656c-24.993-24.994-65.516-24.994-90.509 0l5.657 5.656zM647.878 518.89c24.993 24.993 65.516 24.993 90.509 0l-5.657-5.657c-21.869 21.869-57.326 21.869-79.195 0l-5.657 5.657zm258.587-168.078c10.154-10.154 26.616-10.154 36.77 0l5.657-5.657c-13.278-13.278-34.806-13.278-48.083 0l5.656 5.657zm72.256 35.486c13.278 13.278 34.809 13.278 48.079 0l-5.65-5.657c-10.16 10.154-26.618 10.154-36.772 0l-5.657 5.657zm254.489-206.402c6.25-6.249 16.38-6.249 22.62 0l5.66-5.657c-9.37-9.373-24.57-9.373-33.94 0l5.66 5.657zm29.23 6.602c9.37 9.373 24.57 9.373 33.94 0l-5.66-5.657c-6.25 6.249-16.38 6.249-22.63 0l-5.65 5.657z"/><path id="k" d="M0 .826V1076.84h1V.826H0z"/><path id="l" fill-rule="evenodd" d="M0 0h11v81.667H0V0z"/></defs></svg>