<svg width="16" height="16" viewBox="0 0 16 16" xmlns="http://www.w3.org/2000/svg" xmlns:xlink="http://www.w3.org/1999/xlink"><title>Group 3</title><desc>Created using Figma</desc><use xlink:href="#a" fill="#5C6776" opacity=".6"/><use xlink:href="#b" transform="translate(4.14 4.077)" fill="#FFF"/><defs><path id="a" fill-rule="evenodd" d="M0 1a1 1 0 0 1 1-1h14a1 1 0 0 1 1 1v14a1 1 0 0 1-1 1H1a1 1 0 0 1-1-1V1z"/><path id="b" d="M.707 4.238A1 1 0 1 0-.707 5.652L.707 4.238zm2.256 3.67l-.707.707a1 1 0 0 0 1.551-.17l-.844-.537zM8.832.536A1 1 0 0 0 7.144-.536L8.832.536zm-9.54 5.116l2.964 2.963L3.67 7.201.707 4.238-.707 5.652zm4.515 2.792L8.832.536 7.144-.536 2.119 7.372l1.688 1.072z"/></defs></svg>