<svg xmlns="http://www.w3.org/2000/svg" width="114" height="50" viewBox="0 0 114 50"><path fill="#fff" d="M28.98 0l9.06 5.69v21.76l-9.06 3.41zM18.86 40.18l-6.99 4-10.84-6.57V28.8l7.71-3.4-.04 8.73zm-.04 9.6V40.2l19.25-10.95v9.45zM1 27.15v-10.1L18.9 6.1v9.99zm51.16-8.67V9.87h.17l2.53-.04c3.42 0 4.8 1.98 4.8 4.27 0 2.41-1.64 4.4-4.9 4.4l-2.4-.02zm2.67-6.8c-.2 0-.47 0-.72.04v4.91c.26.03.43.03.71.03 1.69 0 2.76-.92 2.76-2.56 0-1.58-1.16-2.42-2.75-2.42zm6.54-1.81h1.96v8.61h-1.96zm7.81 3.7h3.65v3.84a4.94 4.94 0 0 1-3.2 1.22c-2.94 0-4.59-1.77-4.59-4.45 0-2.48 1.65-4.46 4.34-4.46 1.28 0 2.11.35 2.8.9l-.82 1.59a2.58 2.58 0 0 0-1.74-.64c-1.41 0-2.5.83-2.5 2.61 0 1.58 1 2.6 2.53 2.6.52 0 1.15-.24 1.35-.43v-.93h-1.82zm5.49-3.7h1.95v8.61h-1.95zm3.3 1.85V9.87h7.09v1.85h-2.57v6.76h-1.96v-6.76zm6.55 6.76l3.56-8.61h1.75l3.56 8.61h-2.1l-.7-1.81H87.2l-.71 1.81zm4.38-6.09l-.97 2.44h1.92zm5.59-2.52h1.95v6.76h3.49v1.85h-5.44zM52.16 23.25h3.95l5.31 7.29 5.02-7.29h3.71v17.3h-3.93V29.53l-4.8 6.75h-.56l-4.77-6.68v10.95h-3.93zm22.66 0h3.93v17.3h-3.93zm20.45 17.3l-8.16-10.38v10.38h-3.69v-17.3h3.15l8.16 10.43V23.25h3.69v17.3zm7.57-17.3h10.21v3.71h-6.27V30h5.53v3.71h-5.53v3.14h6.51v3.7h-10.45z"/></svg>