<svg xmlns="http://www.w3.org/2000/svg" width="1572" height="1277" viewBox="0 0 1572 1277"><defs><filter id="a" width="200%" height="200%" x="-50%" y="-50%"><feMorphology in="SourceGraphic" operator="dilate" result="SvgjsFeMorphology1027Out"/><feOffset dy="-10" in="SvgjsFeMorphology1027Out" result="SvgjsFeOffset1028Out"/><feGaussianBlur in="SvgjsFeOffset1028Out" result="SvgjsFeGaussianBlur1029Out" stdDeviation="23.5"/><feComposite in="SvgjsFeGaussianBlur1029Out" in2="SourceAlpha" operator="out" result="SvgjsFeComposite1030Out"/></filter><linearGradient id="b" x1="865.99" x2="718.8" y1="437.26" y2="1227.8" gradientUnits="userSpaceOnUse"><stop offset="0" stop-color="#1299fd" stop-opacity=".6"/><stop offset="1" stop-color="#0074ee" stop-opacity=".6"/></linearGradient><filter id="c" width="200%" height="200%" x="-50%" y="-50%"><feGaussianBlur in="SourceGraphic" result="SvgjsFeGaussianBlur1038Out" stdDeviation="11"/></filter><mask id="d"><path fill="#fff" d="M-12.14 591.5l114.03-114.03 72.96 72.95 213.61-213.61 285.67 285.68 231.72-231.72 77.91 77.91 241.76-241.75 34.89 34.88L1458.22 64v1181.59H-19z"/></mask><clipPath id="e"><path fill="#fff" d="M-23 1250V60h1486v1190zm4-4.41h1477.22V64l-197.81 197.81-34.89-34.88-241.76 241.75-77.91-77.91-231.72 231.72-285.67-285.68-213.61 213.61-72.96-72.95L-12.14 591.5z"/></clipPath></defs><path fill-opacity=".03" d="M-12.14 591.5l114.03-114.03 72.96 72.95 213.61-213.61 285.67 285.68 231.72-231.72 77.91 77.91 241.76-241.75 34.89 34.88L1458.22 64v1181.59H-19z" filter="url(#a)" transform="translate(66 -6.5)"/><path fill="url(#b)" d="M-12.14 591.5l114.03-114.03 72.96 72.95 213.61-213.61 285.67 285.68 231.72-231.72 77.91 77.91 241.76-241.75 34.89 34.88L1458.22 64v1181.59H-19z" transform="translate(66 -6.5)"/><path fill="#139bfe" fill-opacity=".25" d="M-41 1276V34h1522v1242zm22-22.41h1477.22V72l-197.81 197.81-34.89-34.88-241.76 241.75-77.91-77.91-231.72 231.72-285.67-285.68-213.61 213.61-72.96-72.95L-12.14 599.5z" filter="url(#c)" mask="url(&quot;#d&quot;)" transform="translate(66 -6.5)"/><path fill="none" stroke="#139cfe" stroke-linecap="round" stroke-linejoin="round" stroke-miterlimit="50" stroke-width="8" d="M-12.14 591.5l114.03-114.03 72.96 72.95 213.61-213.61 285.67 285.68 231.72-231.72 77.91 77.91 241.76-241.75 34.89 34.88L1458.22 64v1181.59H-19z" clip-path="url(&quot;#e&quot;)" transform="translate(66 -6.5)"/></svg>