<svg width="24" height="24" viewBox="0 0 24 24" xmlns="http://www.w3.org/2000/svg" xmlns:xlink="http://www.w3.org/1999/xlink"><title>Group 2</title><desc>Created using Figma</desc><use xlink:href="#a" fill="#FFF" opacity=".3"/><use xlink:href="#b" fill="#FFF" opacity=".5"/><defs><path id="a" fill-rule="evenodd" d="M12 24c6.627 0 12-5.373 12-12S18.627 0 12 0 0 5.373 0 12s5.373 12 12 12z"/><path id="b" fill-rule="evenodd" d="M21.368 19.5A11.95 11.95 0 0 0 24 12c0-6.627-5.373-12-12-12S0 5.373 0 12c0 2.838.985 5.446 2.632 7.5C4.83 16.757 8.21 15 12 15s7.169 1.757 9.368 4.5zM12 13a5 5 0 1 0 0-10 5 5 0 0 0 0 10z"/></defs></svg>